<?xml version="1.0" encoding="UTF-8"?>
<svg xmlns="http://www.w3.org/2000/svg" xmlns:xlink="http://www.w3.org/1999/xlink" width="1897.06" height="150.756" viewBox="0 0 474.265 37.689">
<defs>
<g>
<g id="glyph-0-0">
<path d="M 4.65625 0 L 4.65625 -0.28125 C 4.359375 -0.28125 4.15625 -0.28125 3.828125 -0.71875 L 2.5625 -2.421875 C 3.4375 -3.1875 3.84375 -3.53125 4.453125 -3.5625 L 4.453125 -3.828125 C 4.140625 -3.8125 4.125 -3.8125 3.796875 -3.8125 L 2.8125 -3.828125 L 2.8125 -3.5625 C 2.953125 -3.546875 3.0625 -3.484375 3.0625 -3.34375 C 3.0625 -3.171875 2.921875 -3.0625 2.84375 -2.984375 L 1.578125 -1.921875 L 1.578125 -6.171875 L 0.265625 -6.078125 L 0.265625 -5.796875 C 0.875 -5.796875 0.953125 -5.734375 0.953125 -5.296875 L 0.953125 -0.6875 C 0.953125 -0.28125 0.859375 -0.28125 0.265625 -0.28125 L 0.265625 0 L 1.25 -0.03125 L 2.234375 0 L 2.234375 -0.28125 C 1.65625 -0.28125 1.5625 -0.28125 1.5625 -0.6875 L 1.5625 -1.578125 L 2.125 -2.0625 L 2.984375 -0.890625 C 3.125 -0.703125 3.203125 -0.59375 3.203125 -0.46875 C 3.203125 -0.375 3.171875 -0.28125 2.890625 -0.28125 L 2.890625 0 L 3.859375 -0.03125 C 4.109375 -0.03125 4.40625 -0.03125 4.65625 0 Z M 4.65625 0 "/>
</g>
<g id="glyph-0-1">
<path d="M 3.796875 -1.0625 C 3.796875 -1.125 3.75 -1.171875 3.671875 -1.171875 C 3.578125 -1.171875 3.5625 -1.109375 3.546875 -1.078125 C 3.25 -0.171875 2.453125 -0.15625 2.328125 -0.15625 C 1.890625 -0.15625 1.53125 -0.390625 1.328125 -0.6875 C 1.03125 -1.125 1.015625 -1.65625 1.015625 -2.03125 L 3.5625 -2.03125 C 3.75 -2.03125 3.796875 -2.03125 3.796875 -2.21875 C 3.796875 -3.140625 3.296875 -3.984375 2.15625 -3.984375 C 1.09375 -3.984375 0.265625 -3.0625 0.265625 -1.953125 C 0.265625 -0.796875 1.1875 0.09375 2.28125 0.09375 C 3.359375 0.09375 3.796875 -0.859375 3.796875 -1.0625 Z M 3.1875 -2.25 L 1.03125 -2.25 C 1.109375 -3.625 1.90625 -3.765625 2.15625 -3.765625 C 2.65625 -3.765625 3.1875 -3.390625 3.1875 -2.25 Z M 3.1875 -2.25 "/>
</g>
<g id="glyph-0-2">
<path d="M 4.625 -3.5625 L 4.625 -3.828125 C 4.34375 -3.8125 4.0625 -3.8125 3.953125 -3.8125 C 3.703125 -3.8125 3.421875 -3.8125 3.171875 -3.828125 L 3.171875 -3.5625 C 3.578125 -3.53125 3.578125 -3.21875 3.578125 -3.1875 C 3.578125 -3.078125 3.546875 -3 3.515625 -2.921875 L 2.609375 -0.8125 L 1.625 -3.140625 C 1.5625 -3.265625 1.5625 -3.328125 1.5625 -3.328125 C 1.5625 -3.5625 1.859375 -3.5625 2.046875 -3.5625 L 2.046875 -3.828125 L 1.0625 -3.8125 C 1.046875 -3.8125 0.53125 -3.8125 0.1875 -3.828125 L 0.1875 -3.5625 C 0.59375 -3.5625 0.75 -3.53125 0.859375 -3.296875 L 2.265625 0 L 2.046875 0.53125 C 1.84375 1 1.59375 1.59375 1.015625 1.59375 C 0.796875 1.59375 0.640625 1.484375 0.609375 1.46875 C 0.6875 1.453125 0.9375 1.390625 0.9375 1.078125 C 0.9375 0.859375 0.765625 0.71875 0.5625 0.71875 C 0.34375 0.71875 0.171875 0.859375 0.171875 1.09375 C 0.171875 1.5 0.546875 1.828125 1.015625 1.828125 C 1.59375 1.828125 1.96875 1.3125 2.1875 0.8125 L 3.796875 -2.9375 C 3.890625 -3.171875 4.046875 -3.53125 4.625 -3.5625 Z M 4.625 -3.5625 "/>
</g>
<g id="glyph-0-3">
<path d="M 6.40625 -3.5625 L 6.40625 -3.828125 C 6.046875 -3.8125 6.03125 -3.8125 5.75 -3.8125 C 5.40625 -3.8125 5.28125 -3.8125 4.921875 -3.828125 L 4.921875 -3.5625 C 5.3125 -3.546875 5.4375 -3.3125 5.4375 -3.125 C 5.4375 -3.046875 5.421875 -2.984375 5.390625 -2.921875 L 4.5625 -0.703125 L 3.671875 -3.140625 C 3.625 -3.25 3.625 -3.28125 3.625 -3.3125 C 3.625 -3.53125 3.90625 -3.5625 4.140625 -3.5625 L 4.140625 -3.828125 C 3.71875 -3.8125 3.359375 -3.8125 3.21875 -3.8125 C 2.9375 -3.8125 2.6875 -3.8125 2.40625 -3.828125 L 2.40625 -3.5625 C 2.6875 -3.5625 2.859375 -3.546875 2.953125 -3.421875 C 3.046875 -3.328125 3.15625 -2.96875 3.15625 -2.9375 L 3.109375 -2.8125 L 2.375 -0.8125 L 1.53125 -3.125 C 1.484375 -3.265625 1.484375 -3.28125 1.484375 -3.3125 C 1.484375 -3.5625 1.828125 -3.5625 2 -3.5625 L 2 -3.828125 L 1.03125 -3.8125 C 0.734375 -3.8125 0.484375 -3.8125 0.171875 -3.828125 L 0.171875 -3.5625 C 0.609375 -3.5625 0.71875 -3.53125 0.828125 -3.234375 L 1.96875 -0.09375 C 2.015625 0.015625 2.046875 0.09375 2.171875 0.09375 C 2.3125 0.09375 2.34375 0 2.375 -0.09375 L 3.296875 -2.578125 L 4.203125 -0.09375 C 4.234375 0 4.28125 0.09375 4.40625 0.09375 C 4.546875 0.09375 4.5625 0.015625 4.609375 -0.078125 L 5.65625 -2.96875 C 5.859375 -3.515625 6.21875 -3.546875 6.40625 -3.5625 Z M 6.40625 -3.5625 "/>
</g>
<g id="glyph-0-4">
<path d="M 4.296875 -1.890625 C 4.296875 -3.0625 3.375 -3.984375 2.28125 -3.984375 C 1.15625 -3.984375 0.265625 -3.03125 0.265625 -1.890625 C 0.265625 -0.78125 1.1875 0.09375 2.28125 0.09375 C 3.40625 0.09375 4.296875 -0.796875 4.296875 -1.890625 Z M 3.53125 -1.96875 C 3.53125 -1.640625 3.53125 -1.125 3.3125 -0.734375 C 3.0625 -0.328125 2.65625 -0.15625 2.28125 -0.15625 C 1.84375 -0.15625 1.46875 -0.375 1.265625 -0.71875 C 1.03125 -1.09375 1.015625 -1.5625 1.015625 -1.96875 C 1.015625 -2.296875 1.015625 -2.8125 1.25 -3.171875 C 1.515625 -3.625 1.953125 -3.765625 2.28125 -3.765625 C 2.78125 -3.765625 3.140625 -3.46875 3.328125 -3.171875 C 3.53125 -2.796875 3.53125 -2.34375 3.53125 -1.96875 Z M 3.53125 -1.96875 "/>
</g>
<g id="glyph-0-5">
<path d="M 3.3125 -3.375 C 3.3125 -3.65625 3.046875 -3.921875 2.65625 -3.921875 C 2.109375 -3.921875 1.75 -3.5625 1.53125 -3 L 1.53125 -3.921875 L 0.265625 -3.828125 L 0.265625 -3.5625 C 0.875 -3.5625 0.953125 -3.5 0.953125 -3.0625 L 0.953125 -0.6875 C 0.953125 -0.28125 0.859375 -0.28125 0.265625 -0.28125 L 0.265625 0 C 0.734375 -0.015625 0.859375 -0.03125 1.3125 -0.03125 L 2.4375 0 L 2.4375 -0.28125 L 2.265625 -0.28125 C 1.609375 -0.28125 1.578125 -0.375 1.578125 -0.703125 L 1.578125 -2.03125 C 1.578125 -2.40625 1.6875 -3.703125 2.6875 -3.703125 C 2.671875 -3.6875 2.53125 -3.578125 2.53125 -3.375 C 2.53125 -3.125 2.71875 -2.984375 2.921875 -2.984375 C 3.109375 -2.984375 3.3125 -3.109375 3.3125 -3.375 Z M 3.3125 -3.375 "/>
</g>
<g id="glyph-0-6">
<path d="M 4.796875 0 L 4.796875 -0.28125 C 4.203125 -0.28125 4.109375 -0.34375 4.109375 -0.78125 L 4.109375 -6.171875 L 2.796875 -6.078125 L 2.796875 -5.796875 C 3.40625 -5.796875 3.484375 -5.734375 3.484375 -5.296875 L 3.484375 -3.40625 C 3.4375 -3.453125 3.046875 -3.921875 2.34375 -3.921875 C 1.25 -3.921875 0.296875 -3.0625 0.296875 -1.90625 C 0.296875 -0.796875 1.1875 0.09375 2.25 0.09375 C 2.890625 0.09375 3.296875 -0.28125 3.453125 -0.46875 L 3.453125 0.09375 Z M 3.453125 -1.0625 C 3.453125 -0.90625 3.453125 -0.875 3.328125 -0.6875 C 3.046875 -0.296875 2.640625 -0.125 2.28125 -0.125 C 1.90625 -0.125 1.546875 -0.34375 1.3125 -0.71875 C 1.078125 -1.09375 1.0625 -1.625 1.0625 -1.90625 C 1.0625 -2.328125 1.125 -2.796875 1.34375 -3.140625 C 1.546875 -3.4375 1.90625 -3.703125 2.375 -3.703125 C 2.75 -3.703125 3.109375 -3.515625 3.359375 -3.1875 C 3.453125 -3.046875 3.453125 -3.03125 3.453125 -2.859375 Z M 3.453125 -1.0625 "/>
</g>
<g id="glyph-0-7">
<path d="M 3.046875 -1.109375 L 3.046875 -1.609375 L 2.796875 -1.609375 L 2.796875 -1.125 C 2.796875 -0.46875 2.515625 -0.15625 2.203125 -0.15625 C 1.59375 -0.15625 1.59375 -0.9375 1.59375 -1.09375 L 1.59375 -3.5625 L 2.890625 -3.5625 L 2.890625 -3.828125 L 1.59375 -3.828125 L 1.59375 -5.46875 L 1.34375 -5.46875 C 1.34375 -4.71875 1.03125 -3.8125 0.171875 -3.78125 L 0.171875 -3.5625 L 0.9375 -3.5625 L 0.9375 -1.109375 C 0.9375 -0.109375 1.65625 0.09375 2.140625 0.09375 C 2.734375 0.09375 3.046875 -0.46875 3.046875 -1.109375 Z M 3.046875 -1.109375 "/>
</g>
<g id="glyph-0-8">
<path d="M 4.421875 -0.796875 L 4.421875 -1.296875 L 4.171875 -1.296875 L 4.171875 -0.796875 C 4.171875 -0.703125 4.171875 -0.265625 3.84375 -0.265625 C 3.53125 -0.265625 3.53125 -0.6875 3.53125 -0.828125 L 3.53125 -2.375 C 3.53125 -2.890625 3.53125 -3.1875 3.125 -3.5625 C 2.796875 -3.84375 2.375 -3.984375 1.921875 -3.984375 C 1.1875 -3.984375 0.5625 -3.609375 0.5625 -3.046875 C 0.5625 -2.765625 0.75 -2.609375 0.984375 -2.609375 C 1.21875 -2.609375 1.390625 -2.796875 1.390625 -3.015625 C 1.390625 -3.40625 0.984375 -3.453125 0.984375 -3.453125 C 1.234375 -3.6875 1.65625 -3.765625 1.90625 -3.765625 C 2.359375 -3.765625 2.875 -3.421875 2.875 -2.640625 L 2.875 -2.34375 C 2.390625 -2.328125 1.71875 -2.28125 1.125 -2 C 0.484375 -1.6875 0.296875 -1.234375 0.296875 -0.875 C 0.296875 -0.140625 1.15625 0.09375 1.75 0.09375 C 2.484375 0.09375 2.828125 -0.390625 2.953125 -0.640625 C 3 -0.265625 3.25 0.046875 3.640625 0.046875 C 3.859375 0.046875 4.421875 -0.078125 4.421875 -0.796875 Z M 2.875 -1.25 C 2.875 -0.390625 2.203125 -0.125 1.8125 -0.125 C 1.390625 -0.125 1 -0.421875 1 -0.875 C 1 -1.453125 1.515625 -2.078125 2.875 -2.140625 Z M 2.875 -1.25 "/>
</g>
<g id="glyph-0-9">
<path d="M 4.765625 -1.921875 C 4.765625 -3.03125 3.890625 -3.921875 2.8125 -3.921875 C 2.21875 -3.921875 1.796875 -3.625 1.578125 -3.375 L 1.578125 -6.171875 L 0.265625 -6.078125 L 0.265625 -5.796875 C 0.875 -5.796875 0.953125 -5.734375 0.953125 -5.296875 L 0.953125 0 L 1.203125 0 L 1.53125 -0.546875 C 1.8125 -0.15625 2.25 0.09375 2.734375 0.09375 C 3.78125 0.09375 4.765625 -0.75 4.765625 -1.921875 Z M 4 -1.921875 C 4 -1.515625 3.953125 -1.046875 3.71875 -0.6875 C 3.515625 -0.40625 3.15625 -0.125 2.6875 -0.125 C 2.28125 -0.125 1.953125 -0.34375 1.734375 -0.671875 C 1.609375 -0.859375 1.609375 -0.859375 1.609375 -1.03125 L 1.609375 -2.84375 C 1.609375 -3 1.609375 -3.015625 1.703125 -3.15625 C 2.015625 -3.5625 2.4375 -3.703125 2.78125 -3.703125 C 3.171875 -3.703125 3.515625 -3.5 3.75 -3.125 C 3.984375 -2.734375 4 -2.21875 4 -1.921875 Z M 4 -1.921875 "/>
</g>
<g id="glyph-0-10">
<path d="M 2.328125 0 L 2.328125 -0.28125 C 1.734375 -0.28125 1.640625 -0.28125 1.640625 -0.6875 L 1.640625 -6.171875 L 0.3125 -6.078125 L 0.3125 -5.796875 C 0.921875 -5.796875 1 -5.734375 1 -5.296875 L 1 -0.6875 C 1 -0.28125 0.90625 -0.28125 0.3125 -0.28125 L 0.3125 0 C 0.734375 -0.015625 0.90625 -0.03125 1.3125 -0.03125 C 1.734375 -0.03125 1.890625 -0.015625 2.328125 0 Z M 2.328125 0 "/>
</g>
<g id="glyph-0-11">
<path d="M 3.296875 -1.140625 C 3.296875 -1.53125 3.109375 -1.78125 2.921875 -1.984375 C 2.609375 -2.28125 2.296875 -2.34375 1.640625 -2.46875 C 1.40625 -2.5 0.75 -2.625 0.75 -3.125 C 0.75 -3.40625 0.953125 -3.78125 1.765625 -3.78125 C 2.734375 -3.78125 2.796875 -3.046875 2.8125 -2.828125 C 2.8125 -2.71875 2.8125 -2.671875 2.9375 -2.671875 C 3.0625 -2.671875 3.0625 -2.734375 3.0625 -2.890625 L 3.0625 -3.75 C 3.0625 -3.90625 3.0625 -3.984375 2.953125 -3.984375 C 2.90625 -3.984375 2.890625 -3.984375 2.78125 -3.875 C 2.75 -3.859375 2.671875 -3.78125 2.625 -3.734375 C 2.34375 -3.921875 2.078125 -3.984375 1.765625 -3.984375 C 0.59375 -3.984375 0.296875 -3.328125 0.296875 -2.875 C 0.296875 -2.59375 0.421875 -2.359375 0.625 -2.171875 C 0.9375 -1.890625 1.265625 -1.828125 1.71875 -1.75 C 2.171875 -1.65625 2.328125 -1.640625 2.53125 -1.484375 C 2.609375 -1.40625 2.84375 -1.25 2.84375 -0.90625 C 2.84375 -0.125 1.9375 -0.125 1.8125 -0.125 C 0.90625 -0.125 0.671875 -0.875 0.5625 -1.359375 C 0.546875 -1.453125 0.53125 -1.5 0.421875 -1.5 C 0.296875 -1.5 0.296875 -1.4375 0.296875 -1.265625 L 0.296875 -0.140625 C 0.296875 0.015625 0.296875 0.09375 0.40625 0.09375 C 0.46875 0.09375 0.46875 0.09375 0.625 -0.078125 C 0.671875 -0.140625 0.765625 -0.25 0.8125 -0.296875 C 1.1875 0.078125 1.59375 0.09375 1.8125 0.09375 C 2.90625 0.09375 3.296875 -0.546875 3.296875 -1.140625 Z M 3.296875 -1.140625 "/>
</g>
<g id="glyph-0-12">
<path d="M 2.25 0 L 2.25 -0.28125 C 1.671875 -0.28125 1.640625 -0.3125 1.640625 -0.671875 L 1.640625 -3.921875 L 0.359375 -3.828125 L 0.359375 -3.5625 C 0.921875 -3.5625 1 -3.5 1 -3.0625 L 1 -0.6875 C 1 -0.28125 0.90625 -0.28125 0.3125 -0.28125 L 0.3125 0 C 0.71875 -0.015625 0.90625 -0.03125 1.296875 -0.03125 C 1.4375 -0.03125 1.8125 -0.03125 2.25 0 Z M 1.75 -5.359375 C 1.75 -5.625 1.53125 -5.84375 1.265625 -5.84375 C 1 -5.84375 0.796875 -5.625 0.796875 -5.359375 C 0.796875 -5.09375 1 -4.875 1.265625 -4.875 C 1.53125 -4.875 1.75 -5.09375 1.75 -5.359375 Z M 1.75 -5.359375 "/>
</g>
<g id="glyph-0-13">
<path d="M 4.859375 0 L 4.859375 -0.28125 C 4.40625 -0.28125 4.1875 -0.28125 4.171875 -0.546875 L 4.171875 -2.265625 C 4.171875 -3 4.171875 -3.25 3.921875 -3.5625 C 3.71875 -3.8125 3.390625 -3.921875 2.9375 -3.921875 C 2.109375 -3.921875 1.734375 -3.3125 1.609375 -3.0625 L 1.59375 -3.0625 L 1.59375 -3.921875 L 0.3125 -3.828125 L 0.3125 -3.5625 C 0.921875 -3.5625 1 -3.5 1 -3.0625 L 1 -0.6875 C 1 -0.28125 0.890625 -0.28125 0.3125 -0.28125 L 0.3125 0 C 0.734375 -0.015625 0.890625 -0.03125 1.328125 -0.03125 C 1.75 -0.03125 1.859375 -0.015625 2.34375 0 L 2.34375 -0.28125 C 1.75 -0.28125 1.65625 -0.28125 1.65625 -0.6875 L 1.65625 -2.296875 C 1.65625 -3.25 2.328125 -3.703125 2.875 -3.703125 C 3.40625 -3.703125 3.515625 -3.265625 3.515625 -2.734375 L 3.515625 -0.6875 C 3.515625 -0.28125 3.421875 -0.28125 2.84375 -0.28125 L 2.84375 0 C 3.25 -0.015625 3.421875 -0.03125 3.84375 -0.03125 C 4.28125 -0.03125 4.390625 -0.015625 4.859375 0 Z M 4.859375 0 "/>
</g>
<g id="glyph-0-14">
<path d="M 4.4375 -3.578125 C 4.4375 -3.75 4.3125 -4.03125 3.953125 -4.03125 C 3.703125 -4.03125 3.296875 -3.921875 2.984375 -3.609375 C 2.75 -3.8125 2.40625 -3.921875 2.03125 -3.921875 C 1.1875 -3.921875 0.546875 -3.328125 0.546875 -2.625 C 0.546875 -2.171875 0.8125 -1.84375 0.953125 -1.71875 C 0.9375 -1.703125 0.6875 -1.390625 0.6875 -0.984375 C 0.6875 -0.671875 0.828125 -0.359375 1.0625 -0.203125 C 0.609375 -0.046875 0.265625 0.28125 0.265625 0.6875 C 0.265625 1.328125 1.140625 1.828125 2.28125 1.828125 C 3.375 1.828125 4.296875 1.359375 4.296875 0.671875 C 4.296875 0.3125 4.140625 -0.078125 3.8125 -0.296875 C 3.3125 -0.609375 2.796875 -0.609375 1.953125 -0.609375 C 1.765625 -0.609375 1.484375 -0.609375 1.40625 -0.625 C 1.15625 -0.671875 0.984375 -0.921875 0.984375 -1.203125 C 0.984375 -1.34375 1.03125 -1.46875 1.109375 -1.59375 C 1.328125 -1.453125 1.609375 -1.3125 2.015625 -1.3125 C 2.859375 -1.3125 3.5 -1.921875 3.5 -2.625 C 3.5 -3.0625 3.25 -3.359375 3.140625 -3.484375 C 3.5 -3.8125 3.90625 -3.8125 4.015625 -3.8125 C 3.96875 -3.78125 3.90625 -3.734375 3.90625 -3.578125 C 3.90625 -3.46875 3.96875 -3.3125 4.171875 -3.3125 C 4.296875 -3.3125 4.4375 -3.390625 4.4375 -3.578125 Z M 2.8125 -2.625 C 2.8125 -2.421875 2.8125 -1.5625 2.015625 -1.5625 C 1.234375 -1.5625 1.234375 -2.421875 1.234375 -2.625 C 1.234375 -2.859375 1.25 -3.171875 1.390625 -3.375 C 1.53125 -3.5625 1.765625 -3.6875 2.015625 -3.6875 C 2.8125 -3.6875 2.8125 -2.828125 2.8125 -2.625 Z M 3.8125 0.6875 C 3.8125 1.1875 3.125 1.59375 2.28125 1.59375 C 1.40625 1.59375 0.75 1.171875 0.75 0.6875 C 0.75 0.546875 0.84375 -0.046875 1.609375 -0.046875 L 2.421875 -0.046875 C 2.71875 -0.046875 3.8125 -0.03125 3.8125 0.6875 Z M 3.8125 0.6875 "/>
</g>
<g id="glyph-0-15">
<path d="M 6.59375 -2.21875 C 6.59375 -2.421875 6.421875 -2.421875 6.28125 -2.421875 L 3.75 -2.421875 L 3.75 -4.96875 C 3.75 -5.109375 3.75 -5.265625 3.546875 -5.265625 C 3.359375 -5.265625 3.359375 -5.078125 3.359375 -4.96875 L 3.359375 -2.421875 L 0.8125 -2.421875 C 0.6875 -2.421875 0.5 -2.421875 0.5 -2.234375 C 0.5 -2.03125 0.671875 -2.03125 0.8125 -2.03125 L 3.359375 -2.03125 L 3.359375 0.5 C 3.359375 0.65625 3.359375 0.8125 3.5625 0.8125 C 3.75 0.8125 3.75 0.625 3.75 0.5 L 3.75 -2.03125 L 6.28125 -2.03125 C 6.40625 -2.03125 6.59375 -2.03125 6.59375 -2.21875 Z M 6.59375 -2.21875 "/>
</g>
<g id="glyph-0-16">
<path d="M 3.796875 -1.0625 C 3.796875 -1.171875 3.703125 -1.171875 3.671875 -1.171875 C 3.578125 -1.171875 3.578125 -1.140625 3.515625 -1 C 3.3125 -0.375 2.8125 -0.15625 2.359375 -0.15625 C 1.796875 -0.15625 1.0625 -0.609375 1.0625 -1.921875 C 1.0625 -3.3125 1.78125 -3.734375 2.3125 -3.734375 C 2.421875 -3.734375 2.90625 -3.71875 3.234375 -3.5 C 3.046875 -3.453125 2.875 -3.328125 2.875 -3.078125 C 2.875 -2.84375 3.046875 -2.671875 3.28125 -2.671875 C 3.515625 -2.671875 3.703125 -2.8125 3.703125 -3.09375 C 3.703125 -3.640625 3.078125 -3.984375 2.296875 -3.984375 C 1.15625 -3.984375 0.296875 -3.03125 0.296875 -1.921875 C 0.296875 -0.78125 1.234375 0.09375 2.28125 0.09375 C 3.515625 0.09375 3.796875 -0.984375 3.796875 -1.0625 Z M 3.796875 -1.0625 "/>
</g>
<g id="glyph-0-17">
<path d="M 5.703125 -4.421875 C 5.703125 -5.296875 4.78125 -6.078125 3.546875 -6.078125 L 0.359375 -6.078125 L 0.359375 -5.796875 L 0.5625 -5.796875 C 1.25 -5.796875 1.265625 -5.703125 1.265625 -5.375 L 1.265625 -0.703125 C 1.265625 -0.375 1.25 -0.28125 0.5625 -0.28125 L 0.359375 -0.28125 L 0.359375 0 C 0.75 -0.03125 1.25 -0.03125 1.65625 -0.03125 C 2.078125 -0.03125 2.5625 -0.03125 2.96875 0 L 2.96875 -0.28125 L 2.765625 -0.28125 C 2.078125 -0.28125 2.0625 -0.375 2.0625 -0.703125 L 2.0625 -2.796875 L 3.546875 -2.796875 C 4.796875 -2.796875 5.703125 -3.5625 5.703125 -4.421875 Z M 4.796875 -4.421875 C 4.796875 -4.015625 4.796875 -3.046875 3.3125 -3.046875 L 2.03125 -3.046875 L 2.03125 -5.4375 C 2.03125 -5.734375 2.046875 -5.796875 2.46875 -5.796875 L 3.328125 -5.796875 C 4.796875 -5.796875 4.796875 -4.8125 4.796875 -4.421875 Z M 4.796875 -4.421875 "/>
</g>
<g id="glyph-0-18">
<path d="M 6.6875 -0.796875 C 6.6875 -0.84375 6.6875 -0.953125 6.5625 -0.953125 C 6.453125 -0.953125 6.453125 -0.875 6.4375 -0.796875 C 6.390625 -0.234375 6.109375 -0.03125 5.84375 -0.03125 C 5.5625 -0.03125 5.453125 -0.203125 5.390625 -0.359375 C 5.3125 -0.546875 5.234375 -1.15625 5.171875 -1.5625 C 5.109375 -2.109375 5.015625 -2.703125 4.03125 -3.015625 C 4.875 -3.25 5.578125 -3.78125 5.578125 -4.46875 C 5.578125 -5.359375 4.5 -6.078125 3.1875 -6.078125 L 0.359375 -6.078125 L 0.359375 -5.796875 L 0.5625 -5.796875 C 1.25 -5.796875 1.265625 -5.703125 1.265625 -5.375 L 1.265625 -0.703125 C 1.265625 -0.375 1.25 -0.28125 0.5625 -0.28125 L 0.359375 -0.28125 L 0.359375 0 C 0.78125 -0.03125 1.21875 -0.03125 1.640625 -0.03125 C 2.078125 -0.03125 2.515625 -0.03125 2.9375 0 L 2.9375 -0.28125 L 2.734375 -0.28125 C 2.046875 -0.28125 2.03125 -0.375 2.03125 -0.703125 L 2.03125 -2.921875 L 3.109375 -2.921875 C 3.75 -2.921875 4.03125 -2.59375 4.0625 -2.546875 C 4.328125 -2.21875 4.328125 -2.09375 4.328125 -1.453125 C 4.328125 -0.859375 4.328125 -0.46875 4.75 -0.140625 C 5.171875 0.203125 5.703125 0.203125 5.8125 0.203125 C 6.546875 0.203125 6.6875 -0.578125 6.6875 -0.796875 Z M 4.671875 -4.46875 C 4.671875 -3.703125 4.28125 -3.140625 3.0625 -3.140625 L 2.03125 -3.140625 L 2.03125 -5.4375 C 2.03125 -5.65625 2.046875 -5.75 2.21875 -5.78125 C 2.296875 -5.796875 2.59375 -5.796875 2.78125 -5.796875 C 3.53125 -5.796875 4.671875 -5.796875 4.671875 -4.46875 Z M 4.671875 -4.46875 "/>
</g>
<g id="glyph-0-19">
<path d="M 3 0 L 3 -0.28125 L 2.78125 -0.28125 C 2.0625 -0.28125 2.046875 -0.375 2.046875 -0.703125 L 2.046875 -5.375 C 2.046875 -5.6875 2.0625 -5.796875 2.78125 -5.796875 L 3 -5.796875 L 3 -6.078125 C 2.625 -6.046875 2.03125 -6.046875 1.640625 -6.046875 C 1.265625 -6.046875 0.65625 -6.046875 0.296875 -6.078125 L 0.296875 -5.796875 L 0.515625 -5.796875 C 1.234375 -5.796875 1.25 -5.6875 1.25 -5.375 L 1.25 -0.703125 C 1.25 -0.375 1.234375 -0.28125 0.515625 -0.28125 L 0.296875 -0.28125 L 0.296875 0 C 0.65625 -0.03125 1.265625 -0.03125 1.640625 -0.03125 C 2.03125 -0.03125 2.625 -0.03125 3 0 Z M 3 0 "/>
</g>
<g id="glyph-0-20">
<path d="M 4.5625 -1.640625 C 4.5625 -2.15625 4.375 -2.546875 4.15625 -2.8125 C 3.78125 -3.296875 3.375 -3.390625 2.796875 -3.53125 L 2.015625 -3.71875 C 1.3125 -3.890625 1.078125 -4.46875 1.078125 -4.859375 C 1.078125 -5.453125 1.5625 -6.015625 2.296875 -6.015625 C 3.453125 -6.015625 3.90625 -5.171875 4.03125 -4.265625 C 4.0625 -4.09375 4.078125 -4.046875 4.171875 -4.046875 C 4.296875 -4.046875 4.296875 -4.109375 4.296875 -4.296875 L 4.296875 -6.015625 C 4.296875 -6.203125 4.296875 -6.265625 4.203125 -6.265625 C 4.140625 -6.265625 4.125 -6.265625 4.0625 -6.15625 C 3.953125 -6 4.03125 -6.109375 3.75 -5.640625 C 3.59375 -5.828125 3.125 -6.265625 2.296875 -6.265625 C 1.25 -6.265625 0.5 -5.453125 0.5 -4.546875 C 0.5 -3.859375 0.921875 -3.4375 0.96875 -3.390625 C 1.375 -3 1.53125 -2.953125 2.59375 -2.703125 C 3.3125 -2.53125 3.390625 -2.515625 3.6875 -2.21875 C 3.6875 -2.21875 3.984375 -1.875 3.984375 -1.34375 C 3.984375 -0.75 3.5625 -0.078125 2.75 -0.078125 C 2.0625 -0.078125 0.828125 -0.359375 0.75 -1.828125 C 0.75 -1.96875 0.75 -2.015625 0.625 -2.015625 C 0.5 -2.015625 0.5 -1.953125 0.5 -1.765625 L 0.5 -0.046875 C 0.5 0.125 0.5 0.203125 0.609375 0.203125 C 0.671875 0.203125 0.6875 0.1875 0.75 0.078125 C 0.859375 -0.078125 0.78125 0.03125 1.0625 -0.421875 C 1.625 0.109375 2.328125 0.203125 2.75 0.203125 C 3.84375 0.203125 4.5625 -0.6875 4.5625 -1.640625 Z M 4.5625 -1.640625 "/>
</g>
<g id="glyph-0-21">
<path d="M 7.984375 0 L 7.984375 -0.28125 L 7.78125 -0.28125 C 7.09375 -0.28125 7.078125 -0.375 7.078125 -0.703125 L 7.078125 -5.375 C 7.078125 -5.703125 7.09375 -5.796875 7.78125 -5.796875 L 7.984375 -5.796875 L 7.984375 -6.078125 L 6.484375 -6.078125 C 6.296875 -6.078125 6.234375 -6.078125 6.171875 -5.90625 L 4.1875 -0.875 L 2.203125 -5.875 C 2.125 -6.046875 2.109375 -6.078125 1.875 -6.078125 L 0.375 -6.078125 L 0.375 -5.796875 L 0.59375 -5.796875 C 1.265625 -5.796875 1.296875 -5.703125 1.296875 -5.375 L 1.296875 -0.9375 C 1.296875 -0.703125 1.296875 -0.28125 0.375 -0.28125 L 0.375 0 C 0.875 -0.015625 1 -0.03125 1.4375 -0.03125 C 1.859375 -0.03125 1.984375 -0.015625 2.46875 0 L 2.46875 -0.28125 C 1.5625 -0.28125 1.5625 -0.703125 1.5625 -0.9375 L 1.5625 -5.703125 L 1.578125 -5.703125 L 3.765625 -0.203125 C 3.8125 -0.078125 3.84375 0 3.953125 0 C 4.046875 0 4.09375 -0.078125 4.125 -0.15625 L 6.34375 -5.78125 L 6.359375 -5.765625 L 6.359375 -0.703125 C 6.359375 -0.375 6.34375 -0.28125 5.65625 -0.28125 L 5.453125 -0.28125 L 5.453125 0 C 5.984375 -0.03125 6.578125 -0.03125 6.71875 -0.03125 C 6.765625 -0.03125 7.421875 -0.03125 7.984375 0 Z M 7.984375 0 "/>
</g>
<g id="glyph-0-22">
<path d="M 6.546875 0 L 6.546875 -0.28125 L 6.390625 -0.28125 C 5.84375 -0.28125 5.75 -0.359375 5.65625 -0.609375 L 3.640625 -6.171875 C 3.59375 -6.296875 3.5625 -6.359375 3.421875 -6.359375 C 3.28125 -6.359375 3.265625 -6.3125 3.203125 -6.171875 L 1.296875 -0.890625 C 1.1875 -0.59375 0.984375 -0.28125 0.296875 -0.28125 L 0.296875 0 C 0.640625 -0.03125 0.875 -0.03125 1.203125 -0.03125 L 2.21875 0 L 2.21875 -0.28125 C 1.703125 -0.28125 1.5625 -0.5625 1.5625 -0.734375 C 1.5625 -0.8125 1.578125 -0.859375 1.59375 -0.890625 L 2.015625 -2.046875 L 4.3125 -2.046875 L 4.796875 -0.703125 C 4.828125 -0.609375 4.84375 -0.59375 4.84375 -0.546875 C 4.84375 -0.28125 4.34375 -0.28125 4.109375 -0.28125 L 4.109375 0 C 4.5 -0.03125 4.96875 -0.03125 5.375 -0.03125 Z M 4.203125 -2.328125 L 2.109375 -2.328125 L 3.15625 -5.234375 Z M 4.203125 -2.328125 "/>
</g>
<g id="glyph-0-23">
<path d="M 4.765625 -1.921875 C 4.765625 -3.046875 3.890625 -3.921875 2.84375 -3.921875 C 2.359375 -3.921875 1.921875 -3.734375 1.578125 -3.375 L 1.578125 -3.921875 L 0.265625 -3.828125 L 0.265625 -3.5625 C 0.890625 -3.5625 0.953125 -3.5 0.953125 -3.125 L 0.953125 1.046875 C 0.953125 1.453125 0.859375 1.453125 0.265625 1.453125 L 0.265625 1.71875 C 0.6875 1.703125 0.859375 1.703125 1.28125 1.703125 C 1.703125 1.703125 1.828125 1.703125 2.296875 1.71875 L 2.296875 1.453125 C 1.703125 1.453125 1.609375 1.453125 1.609375 1.046875 L 1.609375 -0.421875 C 1.84375 -0.203125 2.140625 0.09375 2.734375 0.09375 C 3.78125 0.09375 4.765625 -0.75 4.765625 -1.921875 Z M 4 -1.921875 C 4 -0.90625 3.390625 -0.125 2.671875 -0.125 C 2.28125 -0.125 1.9375 -0.359375 1.71875 -0.671875 C 1.609375 -0.84375 1.609375 -0.859375 1.609375 -1.03125 L 1.609375 -2.984375 C 1.90625 -3.5 2.40625 -3.6875 2.78125 -3.6875 C 3.46875 -3.6875 4 -2.875 4 -1.921875 Z M 4 -1.921875 "/>
</g>
<g id="glyph-0-24">
<path d="M 7.40625 0 L 7.40625 -0.28125 C 6.953125 -0.28125 6.734375 -0.28125 6.71875 -0.546875 L 6.71875 -2.265625 C 6.71875 -3.03125 6.71875 -3.28125 6.421875 -3.609375 C 6.234375 -3.828125 5.890625 -3.921875 5.484375 -3.921875 C 4.84375 -3.921875 4.40625 -3.5625 4.15625 -3.078125 C 4.046875 -3.609375 3.6875 -3.921875 2.9375 -3.921875 C 2.234375 -3.921875 1.796875 -3.46875 1.609375 -3.0625 L 1.59375 -3.0625 L 1.59375 -3.921875 L 0.3125 -3.828125 L 0.3125 -3.5625 C 0.921875 -3.5625 1 -3.5 1 -3.0625 L 1 -0.6875 C 1 -0.28125 0.890625 -0.28125 0.3125 -0.28125 L 0.3125 0 C 0.734375 -0.015625 0.890625 -0.03125 1.328125 -0.03125 C 1.75 -0.03125 1.859375 -0.015625 2.34375 0 L 2.34375 -0.28125 C 1.75 -0.28125 1.65625 -0.28125 1.65625 -0.6875 L 1.65625 -2.296875 C 1.65625 -3.265625 2.34375 -3.703125 2.875 -3.703125 C 3.375 -3.703125 3.53125 -3.359375 3.53125 -2.734375 L 3.53125 -0.6875 C 3.53125 -0.28125 3.4375 -0.28125 2.84375 -0.28125 L 2.84375 0 C 3.265625 -0.015625 3.4375 -0.03125 3.859375 -0.03125 C 4.28125 -0.03125 4.40625 -0.015625 4.875 0 L 4.875 -0.28125 C 4.28125 -0.28125 4.1875 -0.28125 4.1875 -0.6875 L 4.1875 -2.296875 C 4.1875 -3.265625 4.875 -3.703125 5.421875 -3.703125 C 5.90625 -3.703125 6.0625 -3.359375 6.0625 -2.734375 L 6.0625 -0.6875 C 6.0625 -0.28125 5.96875 -0.28125 5.375 -0.28125 L 5.375 0 C 5.796875 -0.015625 5.96875 -0.03125 6.390625 -0.03125 C 6.8125 -0.03125 6.9375 -0.015625 7.40625 0 Z M 7.40625 0 "/>
</g>
<g id="glyph-0-25">
<path d="M 4.6875 0 L 4.6875 -0.28125 C 4.34375 -0.28125 4.078125 -0.28125 3.875 -0.53125 L 2.71875 -2 C 2.65625 -2.078125 2.65625 -2.09375 2.65625 -2.09375 C 2.65625 -2.09375 3.34375 -2.953125 3.40625 -3.03125 C 3.6875 -3.328125 3.984375 -3.546875 4.53125 -3.5625 L 4.53125 -3.828125 C 4.28125 -3.8125 4.03125 -3.8125 3.78125 -3.8125 C 3.4375 -3.8125 3.28125 -3.8125 2.921875 -3.828125 L 2.921875 -3.5625 C 3.0625 -3.53125 3.171875 -3.46875 3.171875 -3.296875 C 3.171875 -3.140625 3.09375 -3.046875 3.046875 -3 L 2.484375 -2.296875 L 1.78125 -3.171875 C 1.71875 -3.25 1.703125 -3.265625 1.703125 -3.328125 C 1.703125 -3.4375 1.8125 -3.546875 2.015625 -3.5625 L 2.015625 -3.828125 C 1.671875 -3.8125 1.4375 -3.8125 1.046875 -3.8125 C 1.046875 -3.8125 0.515625 -3.8125 0.171875 -3.828125 L 0.171875 -3.5625 C 0.78125 -3.5625 0.796875 -3.53125 1.203125 -3.015625 L 2.125 -1.859375 L 1.265625 -0.828125 C 0.8125 -0.296875 0.3125 -0.28125 0.125 -0.28125 L 0.125 0 C 0.375 -0.03125 0.625 -0.03125 0.875 -0.03125 C 1.171875 -0.03125 1.453125 -0.015625 1.734375 0 L 1.734375 -0.28125 C 1.515625 -0.296875 1.484375 -0.453125 1.484375 -0.546875 C 1.484375 -0.5625 1.484375 -0.6875 1.625 -0.859375 C 1.828125 -1.125 2.0625 -1.390625 2.28125 -1.65625 L 2.984375 -0.765625 C 3.15625 -0.5625 3.15625 -0.546875 3.15625 -0.5 C 3.15625 -0.40625 3.0625 -0.28125 2.859375 -0.28125 L 2.859375 0 C 3.234375 -0.015625 3.4375 -0.03125 3.828125 -0.03125 C 3.828125 -0.03125 4.34375 -0.03125 4.6875 0 Z M 4.6875 0 "/>
</g>
<g id="glyph-0-26">
<path d="M 3.25 -5.640625 C 3.25 -5.96875 2.921875 -6.265625 2.421875 -6.265625 C 1.734375 -6.265625 1 -5.75 1 -4.859375 L 1 -3.828125 L 0.296875 -3.828125 L 0.296875 -3.5625 L 1 -3.5625 L 1 -0.6875 C 1 -0.28125 0.90625 -0.28125 0.3125 -0.28125 L 0.3125 0 C 0.796875 -0.015625 0.90625 -0.03125 1.359375 -0.03125 L 2.484375 0 L 2.484375 -0.28125 L 2.3125 -0.28125 C 1.65625 -0.28125 1.640625 -0.375 1.640625 -0.703125 L 1.640625 -3.5625 L 2.671875 -3.5625 L 2.671875 -3.828125 L 1.609375 -3.828125 L 1.609375 -4.84375 C 1.609375 -5.640625 2.046875 -6.046875 2.421875 -6.046875 C 2.515625 -6.046875 2.609375 -6.03125 2.6875 -6 C 2.609375 -5.953125 2.46875 -5.84375 2.46875 -5.625 C 2.46875 -5.390625 2.625 -5.234375 2.859375 -5.234375 C 3.09375 -5.234375 3.25 -5.40625 3.25 -5.640625 Z M 3.25 -5.640625 "/>
</g>
<g id="glyph-0-27">
<path d="M 4.859375 0 L 4.859375 -0.28125 C 4.265625 -0.28125 4.171875 -0.34375 4.171875 -0.78125 L 4.171875 -3.921875 L 2.84375 -3.828125 L 2.84375 -3.5625 C 3.4375 -3.5625 3.515625 -3.5 3.515625 -3.0625 L 3.515625 -1.484375 C 3.515625 -0.6875 3.078125 -0.125 2.4375 -0.125 C 1.703125 -0.125 1.65625 -0.5 1.65625 -0.984375 L 1.65625 -3.921875 L 0.3125 -3.828125 L 0.3125 -3.5625 C 1 -3.5625 1 -3.53125 1 -2.734375 L 1 -1.40625 C 1 -0.828125 1 -0.453125 1.40625 -0.140625 C 1.65625 0.03125 2.03125 0.09375 2.375 0.09375 C 2.84375 0.09375 3.28125 -0.109375 3.53125 -0.640625 L 3.546875 -0.640625 L 3.546875 0.09375 Z M 4.859375 0 "/>
</g>
<g id="glyph-0-28">
<path d="M 4.625 -3.5625 L 4.625 -3.828125 C 4.359375 -3.8125 3.953125 -3.8125 3.953125 -3.8125 C 3.703125 -3.8125 3.421875 -3.8125 3.171875 -3.828125 L 3.171875 -3.5625 C 3.4375 -3.53125 3.578125 -3.40625 3.578125 -3.171875 C 3.578125 -3.078125 3.578125 -3.0625 3.53125 -2.96875 L 2.609375 -0.734375 L 1.59375 -3.15625 C 1.578125 -3.203125 1.5625 -3.265625 1.5625 -3.328125 C 1.5625 -3.5625 1.875 -3.5625 2.046875 -3.5625 L 2.046875 -3.828125 C 1.65625 -3.8125 1.453125 -3.8125 1.0625 -3.8125 C 0.75 -3.8125 0.5 -3.8125 0.171875 -3.828125 L 0.171875 -3.5625 C 0.59375 -3.5625 0.765625 -3.5625 0.890625 -3.234375 L 2.203125 -0.078125 C 2.25 0.078125 2.328125 0.09375 2.40625 0.09375 C 2.484375 0.09375 2.546875 0.078125 2.609375 -0.078125 L 3.828125 -2.984375 C 4.015625 -3.4375 4.328125 -3.546875 4.625 -3.5625 Z M 4.625 -3.5625 "/>
</g>
</g>
<clipPath id="clip-0">
<path clip-rule="nonzero" d="M 1.578125 0 L 96 0 L 96 37.378906 L 1.578125 37.378906 Z M 1.578125 0 "/>
</clipPath>
<clipPath id="clip-1">
<path clip-rule="nonzero" d="M 91 0 L 192 0 L 192 37.378906 L 91 37.378906 Z M 91 0 "/>
</clipPath>
<clipPath id="clip-2">
<path clip-rule="nonzero" d="M 186 0 L 287 0 L 287 37.378906 L 186 37.378906 Z M 186 0 "/>
</clipPath>
<clipPath id="clip-3">
<path clip-rule="nonzero" d="M 282 0 L 383 0 L 383 37.378906 L 282 37.378906 Z M 282 0 "/>
</clipPath>
<clipPath id="clip-4">
<path clip-rule="nonzero" d="M 378 0 L 471.960938 0 L 471.960938 37.378906 L 378 37.378906 Z M 378 0 "/>
</clipPath>
</defs>
<path fill-rule="nonzero" fill="rgb(98.704529%, 94.37561%, 95.080566%)" fill-opacity="1" d="M 82.292969 5.335938 L 8.886719 5.335938 C 7.796875 5.335938 6.910156 6.222656 6.910156 7.3125 L 6.910156 30.070312 C 6.910156 31.160156 7.796875 32.046875 8.886719 32.046875 L 82.292969 32.046875 C 83.382812 32.046875 84.269531 31.160156 84.269531 30.070312 L 84.269531 7.3125 C 84.269531 6.222656 83.382812 5.335938 82.292969 5.335938 Z M 82.292969 5.335938 "/>
<g clip-path="url(#clip-0)">
<path fill="none" stroke-width="0.79701" stroke-linecap="butt" stroke-linejoin="miter" stroke="rgb(78.431702%, 6.27594%, 18.03894%)" stroke-opacity="1" stroke-miterlimit="10" d="M 76.401772 13.465032 L 2.389793 13.465032 C 1.290956 13.465032 0.39692 12.570996 0.39692 11.472159 L 0.39692 -11.473445 C 0.39692 -12.572282 1.290956 -13.466318 2.389793 -13.466318 L 76.401772 -13.466318 C 77.500609 -13.466318 78.394645 -12.572282 78.394645 -11.473445 L 78.394645 11.472159 C 78.394645 12.570996 77.500609 13.465032 76.401772 13.465032 Z M 76.401772 13.465032 " transform="matrix(0.991816, 0, 0, -0.991816, 6.516484, 18.690769)"/>
</g>
<g fill="rgb(0%, 0%, 0%)" fill-opacity="1">
<use xlink:href="#glyph-0-0" x="17.648625" y="20.888632"/>
</g>
<g fill="rgb(0%, 0%, 0%)" fill-opacity="1">
<use xlink:href="#glyph-0-1" x="22.2143" y="20.888632"/>
<use xlink:href="#glyph-0-2" x="26.280187" y="20.888632"/>
<use xlink:href="#glyph-0-3" x="31.10376" y="20.888632"/>
</g>
<g fill="rgb(0%, 0%, 0%)" fill-opacity="1">
<use xlink:href="#glyph-0-4" x="37.456042" y="20.888632"/>
<use xlink:href="#glyph-0-5" x="42.026163" y="20.888632"/>
<use xlink:href="#glyph-0-6" x="45.601156" y="20.888632"/>
</g>
<g fill="rgb(0%, 0%, 0%)" fill-opacity="1">
<use xlink:href="#glyph-0-7" x="53.720481" y="20.888632"/>
<use xlink:href="#glyph-0-8" x="57.27502" y="20.888632"/>
<use xlink:href="#glyph-0-9" x="61.845141" y="20.888632"/>
<use xlink:href="#glyph-0-10" x="66.923054" y="20.888632"/>
<use xlink:href="#glyph-0-1" x="69.46201" y="20.888632"/>
</g>
<path fill-rule="nonzero" fill="rgb(98.704529%, 94.37561%, 95.080566%)" fill-opacity="1" d="M 177.882812 5.335938 L 104.476562 5.335938 C 103.386719 5.335938 102.5 6.222656 102.5 7.3125 L 102.5 30.070312 C 102.5 31.160156 103.386719 32.046875 104.476562 32.046875 L 177.882812 32.046875 C 178.972656 32.046875 179.859375 31.160156 179.859375 30.070312 L 179.859375 7.3125 C 179.859375 6.222656 178.972656 5.335938 177.882812 5.335938 Z M 177.882812 5.335938 "/>
<g clip-path="url(#clip-1)">
<path fill="none" stroke-width="0.79701" stroke-linecap="butt" stroke-linejoin="miter" stroke="rgb(78.431702%, 6.27594%, 18.03894%)" stroke-opacity="1" stroke-miterlimit="10" d="M 172.780399 13.465032 L 98.76842 13.465032 C 97.669583 13.465032 96.775547 12.570996 96.775547 11.472159 L 96.775547 -11.473445 C 96.775547 -12.572282 97.669583 -13.466318 98.76842 -13.466318 L 172.780399 -13.466318 C 173.879236 -13.466318 174.773272 -12.572282 174.773272 -11.473445 L 174.773272 11.472159 C 174.773272 12.570996 173.879236 13.465032 172.780399 13.465032 Z M 172.780399 13.465032 " transform="matrix(0.991816, 0, 0, -0.991816, 6.516484, 18.690769)"/>
</g>
<g fill="rgb(0%, 0%, 0%)" fill-opacity="1">
<use xlink:href="#glyph-0-11" x="117.277513" y="20.888632"/>
<use xlink:href="#glyph-0-7" x="120.882742" y="20.888632"/>
<use xlink:href="#glyph-0-5" x="124.437281" y="20.888632"/>
<use xlink:href="#glyph-0-12" x="128.012274" y="20.888632"/>
<use xlink:href="#glyph-0-13" x="130.55123" y="20.888632"/>
<use xlink:href="#glyph-0-14" x="135.629143" y="20.888632"/>
</g>
<g fill="rgb(0%, 0%, 0%)" fill-opacity="1">
<use xlink:href="#glyph-0-15" x="143.249569" y="20.888632"/>
</g>
<g fill="rgb(0%, 0%, 0%)" fill-opacity="1">
<use xlink:href="#glyph-0-10" x="153.400059" y="20.888632"/>
<use xlink:href="#glyph-0-4" x="155.939015" y="20.888632"/>
<use xlink:href="#glyph-0-14" x="160.509137" y="20.888632"/>
</g>
<path fill-rule="nonzero" fill="rgb(98.704529%, 94.37561%, 95.080566%)" fill-opacity="1" d="M 273.472656 5.335938 L 200.070312 5.335938 C 198.976562 5.335938 198.09375 6.222656 198.09375 7.3125 L 198.09375 30.070312 C 198.09375 31.160156 198.976562 32.046875 200.070312 32.046875 L 273.472656 32.046875 C 274.5625 32.046875 275.449219 31.160156 275.449219 30.070312 L 275.449219 7.3125 C 275.449219 6.222656 274.5625 5.335938 273.472656 5.335938 Z M 273.472656 5.335938 "/>
<g clip-path="url(#clip-2)">
<path fill="none" stroke-width="0.79701" stroke-linecap="butt" stroke-linejoin="miter" stroke="rgb(78.431702%, 6.27594%, 18.03894%)" stroke-opacity="1" stroke-miterlimit="10" d="M 269.159026 13.465032 L 195.150985 13.465032 C 194.048209 13.465032 193.158112 12.570996 193.158112 11.472159 L 193.158112 -11.473445 C 193.158112 -12.572282 194.048209 -13.466318 195.150985 -13.466318 L 269.159026 -13.466318 C 270.257863 -13.466318 271.151899 -12.572282 271.151899 -11.473445 L 271.151899 11.472159 C 271.151899 12.570996 270.257863 13.465032 269.159026 13.465032 Z M 269.159026 13.465032 " transform="matrix(0.991816, 0, 0, -0.991816, 6.516484, 18.690769)"/>
</g>
<g fill="rgb(0%, 0%, 0%)" fill-opacity="1">
<use xlink:href="#glyph-0-16" x="217.450907" y="16.069399"/>
<use xlink:href="#glyph-0-5" x="221.513238" y="16.069399"/>
<use xlink:href="#glyph-0-12" x="225.088231" y="16.069399"/>
<use xlink:href="#glyph-0-7" x="227.627187" y="16.069399"/>
<use xlink:href="#glyph-0-1" x="231.181726" y="16.069399"/>
<use xlink:href="#glyph-0-5" x="235.247613" y="16.069399"/>
<use xlink:href="#glyph-0-12" x="238.822606" y="16.069399"/>
<use xlink:href="#glyph-0-8" x="241.361563" y="16.069399"/>
</g>
<g fill="rgb(0%, 0%, 0%)" fill-opacity="1">
<use xlink:href="#glyph-0-15" x="248.973096" y="16.069399"/>
</g>
<g fill="rgb(0%, 0%, 0%)" fill-opacity="1">
<use xlink:href="#glyph-0-17" x="218.491322" y="26.938709"/>
<use xlink:href="#glyph-0-18" x="224.711098" y="26.938709"/>
<use xlink:href="#glyph-0-19" x="231.437777" y="26.938709"/>
<use xlink:href="#glyph-0-20" x="234.737086" y="26.938709"/>
<use xlink:href="#glyph-0-21" x="239.814999" y="26.938709"/>
<use xlink:href="#glyph-0-22" x="248.192221" y="26.938709"/>
</g>
<path fill-rule="nonzero" fill="rgb(98.704529%, 94.37561%, 95.080566%)" fill-opacity="1" d="M 369.0625 5.335938 L 295.660156 5.335938 C 294.566406 5.335938 293.683594 6.222656 293.683594 7.3125 L 293.683594 30.070312 C 293.683594 31.160156 294.566406 32.046875 295.660156 32.046875 L 369.0625 32.046875 C 370.15625 32.046875 371.039062 31.160156 371.039062 30.070312 L 371.039062 7.3125 C 371.039062 6.222656 370.15625 5.335938 369.0625 5.335938 Z M 369.0625 5.335938 "/>
<g clip-path="url(#clip-3)">
<path fill="none" stroke-width="0.79701" stroke-linecap="butt" stroke-linejoin="miter" stroke="rgb(78.431702%, 6.27594%, 18.03894%)" stroke-opacity="1" stroke-miterlimit="10" d="M 365.537653 13.465032 L 291.529612 13.465032 C 290.426836 13.465032 289.536739 12.570996 289.536739 11.472159 L 289.536739 -11.473445 C 289.536739 -12.572282 290.426836 -13.466318 291.529612 -13.466318 L 365.537653 -13.466318 C 366.640428 -13.466318 367.530525 -12.572282 367.530525 -11.473445 L 367.530525 11.472159 C 367.530525 12.570996 366.640428 13.465032 365.537653 13.465032 Z M 365.537653 13.465032 " transform="matrix(0.991816, 0, 0, -0.991816, 6.516484, 18.690769)"/>
</g>
<g fill="rgb(0%, 0%, 0%)" fill-opacity="1">
<use xlink:href="#glyph-0-16" x="302.260084" y="20.639687"/>
<use xlink:href="#glyph-0-4" x="306.322414" y="20.639687"/>
<use xlink:href="#glyph-0-13" x="310.892536" y="20.639687"/>
<use xlink:href="#glyph-0-16" x="315.970448" y="20.639687"/>
<use xlink:href="#glyph-0-1" x="320.032778" y="20.639687"/>
<use xlink:href="#glyph-0-23" x="324.098666" y="20.639687"/>
<use xlink:href="#glyph-0-7" x="329.176579" y="20.639687"/>
</g>
<g fill="rgb(0%, 0%, 0%)" fill-opacity="1">
<use xlink:href="#glyph-0-24" x="335.772529" y="20.639687"/>
<use xlink:href="#glyph-0-8" x="343.388509" y="20.639687"/>
<use xlink:href="#glyph-0-7" x="347.958631" y="20.639687"/>
<use xlink:href="#glyph-0-5" x="351.51317" y="20.639687"/>
<use xlink:href="#glyph-0-12" x="355.088163" y="20.639687"/>
<use xlink:href="#glyph-0-25" x="357.627119" y="20.639687"/>
</g>
<path fill-rule="nonzero" fill="rgb(98.704529%, 94.37561%, 95.080566%)" fill-opacity="1" d="M 464.652344 5.335938 L 391.25 5.335938 C 390.15625 5.335938 389.273438 6.222656 389.273438 7.3125 L 389.273438 30.070312 C 389.273438 31.160156 390.15625 32.046875 391.25 32.046875 L 464.652344 32.046875 C 465.746094 32.046875 466.628906 31.160156 466.628906 30.070312 L 466.628906 7.3125 C 466.628906 6.222656 465.746094 5.335938 464.652344 5.335938 Z M 464.652344 5.335938 "/>
<g clip-path="url(#clip-4)">
<path fill="none" stroke-width="0.79701" stroke-linecap="butt" stroke-linejoin="miter" stroke="rgb(78.431702%, 6.27594%, 18.03894%)" stroke-opacity="1" stroke-miterlimit="10" d="M 461.916279 13.465032 L 387.908238 13.465032 C 386.805463 13.465032 385.915366 12.570996 385.915366 11.472159 L 385.915366 -11.473445 C 385.915366 -12.572282 386.805463 -13.466318 387.908238 -13.466318 L 461.916279 -13.466318 C 463.019055 -13.466318 463.909152 -12.572282 463.909152 -11.473445 L 463.909152 11.472159 C 463.909152 12.570996 463.019055 13.465032 461.916279 13.465032 Z M 461.916279 13.465032 " transform="matrix(0.991816, 0, 0, -0.991816, 6.516484, 18.690769)"/>
</g>
<g fill="rgb(0%, 0%, 0%)" fill-opacity="1">
<use xlink:href="#glyph-0-26" x="406.329331" y="21.753496"/>
<use xlink:href="#glyph-0-4" x="409.121738" y="21.753496"/>
<use xlink:href="#glyph-0-27" x="413.69186" y="21.753496"/>
<use xlink:href="#glyph-0-5" x="418.769773" y="21.753496"/>
</g>
<g fill="rgb(0%, 0%, 0%)" fill-opacity="1">
<use xlink:href="#glyph-0-24" x="425.39507" y="21.753496"/>
<use xlink:href="#glyph-0-4" x="433.01105" y="21.753496"/>
</g>
<g fill="rgb(0%, 0%, 0%)" fill-opacity="1">
<use xlink:href="#glyph-0-28" x="437.323274" y="21.753496"/>
</g>
<g fill="rgb(0%, 0%, 0%)" fill-opacity="1">
<use xlink:href="#glyph-0-1" x="441.888949" y="21.753496"/>
<use xlink:href="#glyph-0-11" x="445.954837" y="21.753496"/>
</g>
<path fill="none" stroke-width="0.79701" stroke-linecap="butt" stroke-linejoin="miter" stroke="rgb(78.431702%, 6.27594%, 18.03894%)" stroke-opacity="1" stroke-miterlimit="10" d="M 78.792432 -0.000642959 L 91.923335 -0.000642959 " transform="matrix(0.991816, 0, 0, -0.991816, 6.516484, 18.690769)"/>
<path fill-rule="nonzero" fill="rgb(78.431702%, 6.27594%, 18.03894%)" fill-opacity="1" stroke-width="0.79701" stroke-linecap="butt" stroke-linejoin="miter" stroke="rgb(78.431702%, 6.27594%, 18.03894%)" stroke-opacity="1" stroke-miterlimit="10" d="M 5.951197 -0.000642959 L 1.288033 1.763798 L 2.831918 -0.000642959 L 1.288033 -1.761145 Z M 5.951197 -0.000642959 " transform="matrix(0.991816, 0, 0, -0.991816, 95.077978, 18.690769)"/>
<path fill="none" stroke-width="0.79701" stroke-linecap="butt" stroke-linejoin="miter" stroke="rgb(78.431702%, 6.27594%, 18.03894%)" stroke-opacity="1" stroke-miterlimit="10" d="M 175.171059 -0.000642959 L 188.301962 -0.000642959 " transform="matrix(0.991816, 0, 0, -0.991816, 6.516484, 18.690769)"/>
<path fill-rule="nonzero" fill="rgb(78.431702%, 6.27594%, 18.03894%)" fill-opacity="1" stroke-width="0.79701" stroke-linecap="butt" stroke-linejoin="miter" stroke="rgb(78.431702%, 6.27594%, 18.03894%)" stroke-opacity="1" stroke-miterlimit="10" d="M 5.950424 -0.000642959 L 1.287259 1.763798 L 2.831145 -0.000642959 L 1.287259 -1.761145 Z M 5.950424 -0.000642959 " transform="matrix(0.991816, 0, 0, -0.991816, 190.668588, 18.690769)"/>
<path fill="none" stroke-width="0.79701" stroke-linecap="butt" stroke-linejoin="miter" stroke="rgb(78.431702%, 6.27594%, 18.03894%)" stroke-opacity="1" stroke-miterlimit="10" d="M 271.549685 -0.000642959 L 284.680589 -0.000642959 " transform="matrix(0.991816, 0, 0, -0.991816, 6.516484, 18.690769)"/>
<path fill-rule="nonzero" fill="rgb(78.431702%, 6.27594%, 18.03894%)" fill-opacity="1" stroke-width="0.79701" stroke-linecap="butt" stroke-linejoin="miter" stroke="rgb(78.431702%, 6.27594%, 18.03894%)" stroke-opacity="1" stroke-miterlimit="10" d="M 5.95006 -0.000642959 L 1.286896 1.763798 L 2.830782 -0.000642959 L 1.286896 -1.761145 Z M 5.95006 -0.000642959 " transform="matrix(0.991816, 0, 0, -0.991816, 286.258792, 18.690769)"/>
<path fill="none" stroke-width="0.79701" stroke-linecap="butt" stroke-linejoin="miter" stroke="rgb(78.431702%, 6.27594%, 18.03894%)" stroke-opacity="1" stroke-miterlimit="10" d="M 367.928312 -0.000642959 L 381.063154 -0.000642959 " transform="matrix(0.991816, 0, 0, -0.991816, 6.516484, 18.690769)"/>
<path fill-rule="nonzero" fill="rgb(78.431702%, 6.27594%, 18.03894%)" fill-opacity="1" stroke-width="0.79701" stroke-linecap="butt" stroke-linejoin="miter" stroke="rgb(78.431702%, 6.27594%, 18.03894%)" stroke-opacity="1" stroke-miterlimit="10" d="M 5.953226 -0.000642959 L 1.286123 1.763798 L 2.830008 -0.000642959 L 1.286123 -1.761145 Z M 5.953226 -0.000642959 " transform="matrix(0.991816, 0, 0, -0.991816, 381.849403, 18.690769)"/>
</svg>
