<?xml version="1.0" encoding="UTF-8"?>
<svg xmlns="http://www.w3.org/2000/svg" xmlns:xlink="http://www.w3.org/1999/xlink" width="1466.2" height="248.268" viewBox="0 0 366.549 62.067">
<defs>
<g>
<g id="glyph-0-0">
<path d="M 7.421875 -2.984375 C 7.421875 -4.859375 6.125 -6.0625 4.265625 -6.0625 L 0.375 -6.0625 L 0.375 -5.625 L 1.328125 -5.625 L 1.328125 -0.4375 L 0.375 -0.4375 L 0.375 0 L 4.265625 0 C 6.03125 0 7.421875 -1.0625 7.421875 -2.984375 Z M 6.078125 -2.984375 C 6.078125 -2.125 6.078125 -0.4375 3.90625 -0.4375 L 2.546875 -0.4375 L 2.546875 -5.625 L 3.890625 -5.625 C 4.59375 -5.625 5.25 -5.40625 5.625 -4.921875 C 6.015625 -4.421875 6.078125 -3.796875 6.078125 -2.984375 Z M 6.078125 -2.984375 "/>
</g>
<g id="glyph-0-1">
<path d="M 4.5 -1.03125 C 4.5 -1.203125 4.3125 -1.203125 4.265625 -1.203125 C 4.109375 -1.203125 4.09375 -1.140625 4.03125 -1.03125 C 3.828125 -0.5625 3.296875 -0.328125 2.734375 -0.328125 C 1.484375 -0.328125 1.46875 -1.46875 1.46875 -1.890625 L 4.203125 -1.890625 C 4.390625 -1.890625 4.5 -1.890625 4.5 -2.140625 C 4.5 -2.34375 4.46875 -3.109375 3.90625 -3.59375 C 3.5 -3.921875 2.96875 -4 2.546875 -4 C 1.03125 -4 0.296875 -3.046875 0.296875 -1.984375 C 0.296875 -0.828125 1.171875 0.046875 2.671875 0.046875 C 4.125 0.046875 4.5 -0.890625 4.5 -1.03125 Z M 3.625 -2.21875 L 1.46875 -2.21875 C 1.484375 -2.625 1.53125 -3.640625 2.546875 -3.640625 C 3.578125 -3.640625 3.609375 -2.5625 3.625 -2.21875 Z M 3.625 -2.21875 "/>
</g>
<g id="glyph-0-2">
<path d="M 3.765625 -1.234375 C 3.765625 -1.6875 3.515625 -1.96875 3.359375 -2.09375 C 2.953125 -2.4375 2.671875 -2.484375 1.984375 -2.59375 C 1.546875 -2.671875 1 -2.75 1 -3.15625 C 1 -3.6875 1.8125 -3.6875 2.015625 -3.6875 C 3 -3.6875 3.03125 -3.15625 3.046875 -2.921875 C 3.0625 -2.796875 3.1875 -2.796875 3.28125 -2.796875 C 3.5 -2.796875 3.5 -2.84375 3.5 -3.046875 L 3.5 -3.75 C 3.5 -3.90625 3.5 -4 3.328125 -4 C 3.234375 -4 3.09375 -3.921875 2.9375 -3.84375 C 2.65625 -3.96875 2.3125 -4 2.015625 -4 C 1.75 -4 0.34375 -4 0.34375 -2.828125 C 0.34375 -1.90625 1.5 -1.71875 1.8125 -1.65625 C 2.53125 -1.53125 3.109375 -1.4375 3.109375 -0.9375 C 3.109375 -0.296875 2.28125 -0.296875 2.09375 -0.296875 C 1.640625 -0.296875 1.0625 -0.421875 0.8125 -1.234375 C 0.765625 -1.375 0.765625 -1.40625 0.578125 -1.40625 C 0.34375 -1.40625 0.34375 -1.34375 0.34375 -1.140625 L 0.34375 -0.203125 C 0.34375 -0.046875 0.34375 0.046875 0.515625 0.046875 C 0.578125 0.046875 0.59375 0.046875 0.796875 -0.078125 L 1.03125 -0.21875 C 1.453125 0.046875 1.921875 0.046875 2.09375 0.046875 C 2.359375 0.046875 3.765625 0.046875 3.765625 -1.234375 Z M 3.765625 -1.234375 "/>
</g>
<g id="glyph-0-3">
<path d="M 4.34375 -1.03125 C 4.34375 -1.171875 4.21875 -1.171875 4.109375 -1.171875 C 3.9375 -1.171875 3.9375 -1.15625 3.859375 -1 C 3.6875 -0.578125 3.296875 -0.328125 2.765625 -0.328125 C 1.515625 -0.328125 1.515625 -1.59375 1.515625 -2 C 1.515625 -2.53125 1.53125 -3.625 2.6875 -3.625 C 2.75 -3.625 3.21875 -3.609375 3.21875 -3.5625 L 3.203125 -3.515625 C 3.109375 -3.421875 3.078125 -3.28125 3.078125 -3.15625 C 3.078125 -2.796875 3.359375 -2.59375 3.65625 -2.59375 C 3.921875 -2.59375 4.234375 -2.765625 4.234375 -3.171875 C 4.234375 -4 3 -4 2.65625 -4 C 0.953125 -4 0.34375 -2.921875 0.34375 -1.953125 C 0.34375 -0.84375 1.140625 0.046875 2.609375 0.046875 C 2.9375 0.046875 3.359375 0 3.734375 -0.234375 C 4.234375 -0.53125 4.34375 -1 4.34375 -1.03125 Z M 4.34375 -1.03125 "/>
</g>
<g id="glyph-0-4">
<path d="M 4.015625 -3.234375 C 4.015625 -3.6875 3.5625 -3.96875 3.03125 -3.96875 C 2.421875 -3.96875 2.046875 -3.515625 1.84375 -3.015625 L 1.84375 -3.96875 L 0.359375 -3.90625 L 0.359375 -3.46875 C 0.890625 -3.46875 0.96875 -3.46875 0.96875 -3.125 L 0.96875 -0.4375 L 0.359375 -0.4375 L 0.359375 0 L 1.484375 -0.03125 C 1.71875 -0.03125 2.21875 -0.03125 2.6875 0 L 2.6875 -0.4375 L 1.9375 -0.4375 L 1.9375 -1.921875 C 1.9375 -2.5625 2.1875 -3.59375 3.03125 -3.625 C 2.9375 -3.515625 2.890625 -3.375 2.890625 -3.234375 C 2.890625 -2.84375 3.203125 -2.671875 3.453125 -2.671875 C 3.734375 -2.671875 4.015625 -2.859375 4.015625 -3.234375 Z M 4.015625 -3.234375 "/>
</g>
<g id="glyph-0-5">
<path d="M 2.578125 0 L 2.578125 -0.4375 L 2.046875 -0.4375 L 2.046875 -3.96875 L 0.484375 -3.90625 L 0.484375 -3.46875 C 1 -3.46875 1.0625 -3.46875 1.0625 -3.125 L 1.0625 -0.4375 L 0.453125 -0.4375 L 0.453125 0 C 1.046875 -0.015625 1.171875 -0.03125 1.53125 -0.03125 C 1.96875 -0.03125 2.078125 -0.015625 2.578125 0 Z M 2.140625 -5.34375 C 2.140625 -5.75 1.796875 -6.03125 1.453125 -6.03125 C 1.078125 -6.03125 0.765625 -5.734375 0.765625 -5.34375 C 0.765625 -4.9375 1.09375 -4.65625 1.453125 -4.65625 C 1.8125 -4.65625 2.140625 -4.953125 2.140625 -5.34375 Z M 2.140625 -5.34375 "/>
</g>
<g id="glyph-0-6">
<path d="M 5.453125 -1.953125 C 5.453125 -3.15625 4.59375 -3.96875 3.28125 -3.96875 C 2.578125 -3.96875 2.109375 -3.671875 1.9375 -3.546875 L 1.9375 -6.125 L 0.359375 -6.0625 L 0.359375 -5.625 C 0.890625 -5.625 0.96875 -5.625 0.96875 -5.28125 L 0.96875 0 L 1.40625 0 L 1.828125 -0.5 C 2.109375 -0.21875 2.546875 0.046875 3.171875 0.046875 C 4.546875 0.046875 5.453125 -0.78125 5.453125 -1.953125 Z M 4.265625 -1.984375 C 4.265625 -1.609375 4.265625 -1.140625 4.09375 -0.828125 C 3.796875 -0.328125 3.25 -0.296875 3.078125 -0.296875 C 2.53125 -0.296875 2.1875 -0.640625 2 -0.921875 L 2 -3.046875 C 2.21875 -3.34375 2.640625 -3.625 3.171875 -3.625 C 4.265625 -3.625 4.265625 -2.5625 4.265625 -1.984375 Z M 4.265625 -1.984375 "/>
</g>
<g id="glyph-0-7">
<path d="M 4.78125 -5.625 L 4.78125 -6.0625 C 4.421875 -6.03125 3.71875 -6.03125 3.34375 -6.03125 C 2.9375 -6.03125 1.9375 -6.03125 1.59375 -6.0625 L 1.59375 -5.625 L 2.828125 -5.625 L 2.828125 -1.3125 C 2.828125 -0.578125 2.484375 -0.25 1.9375 -0.25 C 1.75 -0.25 1.46875 -0.28125 1.21875 -0.375 C 1.515625 -0.53125 1.59375 -0.796875 1.59375 -1 C 1.59375 -1.4375 1.28125 -1.703125 0.90625 -1.703125 C 0.53125 -1.703125 0.203125 -1.453125 0.203125 -1 C 0.203125 -0.34375 0.875 0.109375 1.96875 0.109375 C 3.234375 0.109375 4.0625 -0.421875 4.0625 -1.328125 L 4.0625 -5.625 Z M 4.78125 -5.625 "/>
</g>
<g id="glyph-0-8">
<path d="M 5.5625 0 L 5.5625 -0.4375 C 5.03125 -0.4375 4.96875 -0.4375 4.96875 -0.78125 L 4.96875 -3.96875 L 3.328125 -3.90625 L 3.328125 -3.46875 C 3.859375 -3.46875 3.921875 -3.46875 3.921875 -3.125 L 3.921875 -1.453125 C 3.921875 -0.734375 3.46875 -0.296875 2.796875 -0.296875 C 2.109375 -0.296875 2.078125 -0.5 2.078125 -0.96875 L 2.078125 -3.96875 L 0.4375 -3.90625 L 0.4375 -3.46875 C 0.96875 -3.46875 1.046875 -3.46875 1.046875 -3.125 L 1.046875 -1.078125 C 1.046875 -0.125 1.796875 0.046875 2.65625 0.046875 C 2.9375 0.046875 3.53125 0.046875 3.984375 -0.609375 L 3.984375 0.046875 Z M 5.5625 0 "/>
</g>
<g id="glyph-0-9">
<path d="M 3.46875 -1.078125 L 3.46875 -1.546875 L 3.015625 -1.546875 L 3.015625 -1.109375 C 3.015625 -0.484375 2.703125 -0.328125 2.484375 -0.328125 C 1.96875 -0.328125 1.96875 -0.859375 1.96875 -1.0625 L 1.96875 -3.484375 L 3.296875 -3.484375 L 3.296875 -3.921875 L 1.96875 -3.921875 L 1.96875 -5.609375 L 1.515625 -5.609375 C 1.515625 -4.78125 1.09375 -3.859375 0.1875 -3.84375 L 0.1875 -3.484375 L 0.9375 -3.484375 L 0.9375 -1.078125 C 0.9375 -0.078125 1.8125 0.046875 2.359375 0.046875 C 3.046875 0.046875 3.46875 -0.4375 3.46875 -1.078125 Z M 3.46875 -1.078125 "/>
</g>
<g id="glyph-0-10">
<path d="M 3.984375 -5.390625 C 3.984375 -5.796875 3.640625 -6.1875 2.953125 -6.1875 C 2.015625 -6.1875 1.0625 -5.78125 1.0625 -4.796875 L 1.0625 -3.921875 L 0.390625 -3.921875 L 0.390625 -3.484375 L 1.0625 -3.484375 L 1.0625 -0.4375 L 0.46875 -0.4375 L 0.46875 0 L 1.59375 -0.03125 C 1.8125 -0.03125 2.328125 -0.03125 2.796875 0 L 2.796875 -0.4375 L 2.046875 -0.4375 L 2.046875 -3.484375 L 3.09375 -3.484375 L 3.09375 -3.921875 L 2 -3.921875 L 2 -4.796875 C 2 -5.75 2.6875 -5.828125 2.90625 -5.828125 C 2.9375 -5.828125 3.015625 -5.8125 3.015625 -5.8125 C 3.015625 -5.8125 3.015625 -5.796875 3 -5.78125 C 2.90625 -5.65625 2.859375 -5.53125 2.859375 -5.390625 C 2.859375 -5.015625 3.15625 -4.828125 3.421875 -4.828125 C 3.703125 -4.828125 3.984375 -5.046875 3.984375 -5.390625 Z M 3.984375 -5.390625 "/>
</g>
<g id="glyph-0-11">
<path d="M 5.265625 -3.484375 L 5.265625 -3.921875 C 5.015625 -3.890625 4.796875 -3.890625 4.546875 -3.890625 C 4.28125 -3.890625 4.015625 -3.90625 3.75 -3.921875 L 3.75 -3.484375 C 3.75 -3.484375 4.140625 -3.484375 4.140625 -3.375 C 4.140625 -3.375 4.140625 -3.359375 4.09375 -3.28125 L 3.046875 -1.125 L 1.890625 -3.484375 L 2.34375 -3.484375 L 2.34375 -3.921875 L 1.265625 -3.890625 C 0.9375 -3.890625 0.765625 -3.890625 0.25 -3.921875 L 0.25 -3.484375 L 0.796875 -3.484375 L 2.5 0 C 2.1875 0.71875 1.859375 1.40625 1.171875 1.40625 C 1.125 1.40625 1.0625 1.40625 1 1.390625 C 1.15625 1.3125 1.265625 1.140625 1.265625 0.921875 C 1.265625 0.59375 1.015625 0.390625 0.734375 0.390625 C 0.453125 0.390625 0.203125 0.59375 0.203125 0.921875 C 0.203125 1.40625 0.640625 1.765625 1.171875 1.765625 C 1.859375 1.765625 2.40625 1.25 2.671875 0.6875 L 4.609375 -3.296875 C 4.671875 -3.421875 4.703125 -3.484375 5.265625 -3.484375 Z M 5.265625 -3.484375 "/>
</g>
<g id="glyph-1-0">
<path d="M 3.015625 2.09375 C 3.015625 2.0625 2.984375 2.03125 2.9375 1.96875 C 1.796875 0.921875 1.453125 -0.65625 1.453125 -2.203125 C 1.453125 -3.578125 1.71875 -5.234375 2.953125 -6.421875 C 3 -6.453125 3.015625 -6.484375 3.015625 -6.53125 C 3.015625 -6.578125 2.96875 -6.625 2.90625 -6.625 C 2.796875 -6.625 2 -5.984375 1.53125 -5.015625 C 1.109375 -4.171875 0.890625 -3.265625 0.890625 -2.21875 C 0.890625 -1.578125 0.96875 -0.578125 1.453125 0.46875 C 1.984375 1.546875 2.796875 2.203125 2.90625 2.203125 C 2.96875 2.203125 3.015625 2.15625 3.015625 2.09375 Z M 3.015625 2.09375 "/>
</g>
<g id="glyph-1-1">
<path d="M 6.359375 -3.53125 L 6.359375 -3.8125 C 6.015625 -3.78125 6 -3.78125 5.703125 -3.78125 C 5.375 -3.78125 5.25 -3.78125 4.890625 -3.8125 L 4.890625 -3.53125 C 5.265625 -3.515625 5.390625 -3.28125 5.390625 -3.109375 C 5.390625 -3.015625 5.375 -2.96875 5.34375 -2.90625 L 4.53125 -0.703125 L 3.640625 -3.109375 C 3.609375 -3.234375 3.609375 -3.25 3.609375 -3.28125 C 3.609375 -3.515625 3.875 -3.53125 4.109375 -3.53125 L 4.109375 -3.8125 C 3.703125 -3.78125 3.34375 -3.78125 3.203125 -3.78125 C 2.921875 -3.78125 2.671875 -3.78125 2.390625 -3.8125 L 2.390625 -3.53125 C 2.671875 -3.53125 2.84375 -3.515625 2.9375 -3.40625 C 3.015625 -3.296875 3.140625 -2.953125 3.140625 -2.921875 L 3.09375 -2.796875 L 2.359375 -0.8125 L 1.53125 -3.109375 C 1.46875 -3.234375 1.46875 -3.25 1.46875 -3.296875 C 1.46875 -3.53125 1.8125 -3.53125 1.984375 -3.53125 L 1.984375 -3.8125 L 1.03125 -3.78125 C 0.734375 -3.78125 0.484375 -3.78125 0.171875 -3.8125 L 0.171875 -3.53125 C 0.59375 -3.53125 0.71875 -3.515625 0.828125 -3.21875 L 1.953125 -0.09375 C 2 0.015625 2.03125 0.09375 2.15625 0.09375 C 2.296875 0.09375 2.328125 0 2.359375 -0.09375 L 3.265625 -2.5625 L 4.171875 -0.09375 C 4.21875 0 4.25 0.09375 4.375 0.09375 C 4.515625 0.09375 4.53125 0.015625 4.578125 -0.078125 L 5.625 -2.953125 C 5.8125 -3.484375 6.1875 -3.515625 6.359375 -3.53125 Z M 6.359375 -3.53125 "/>
</g>
<g id="glyph-1-2">
<path d="M 4.828125 0 L 4.828125 -0.28125 C 4.375 -0.28125 4.15625 -0.28125 4.15625 -0.546875 L 4.15625 -2.25 C 4.15625 -2.96875 4.15625 -3.234375 3.90625 -3.546875 C 3.703125 -3.78125 3.359375 -3.90625 2.921875 -3.90625 C 2.328125 -3.90625 1.890625 -3.59375 1.625 -3.09375 L 1.609375 -3.09375 L 1.609375 -6.125 L 0.3125 -6.03125 L 0.3125 -5.75 C 0.90625 -5.75 0.984375 -5.6875 0.984375 -5.265625 L 0.984375 -0.6875 C 0.984375 -0.28125 0.890625 -0.28125 0.3125 -0.28125 L 0.3125 0 C 0.71875 -0.015625 0.890625 -0.03125 1.3125 -0.03125 C 1.734375 -0.03125 1.859375 -0.015625 2.328125 0 L 2.328125 -0.28125 C 1.734375 -0.28125 1.640625 -0.28125 1.640625 -0.6875 L 1.640625 -2.28125 C 1.640625 -3.21875 2.296875 -3.6875 2.859375 -3.6875 C 3.375 -3.6875 3.5 -3.25 3.5 -2.71875 L 3.5 -0.6875 C 3.5 -0.28125 3.40625 -0.28125 2.8125 -0.28125 L 2.8125 0 C 3.234375 -0.015625 3.40625 -0.03125 3.828125 -0.03125 C 4.25 -0.03125 4.359375 -0.015625 4.828125 0 Z M 4.828125 0 "/>
</g>
<g id="glyph-1-3">
<path d="M 4.390625 -0.78125 L 4.390625 -1.28125 L 4.140625 -1.28125 L 4.140625 -0.796875 C 4.140625 -0.703125 4.140625 -0.25 3.828125 -0.25 C 3.5 -0.25 3.5 -0.6875 3.5 -0.828125 L 3.5 -2.359375 C 3.5 -2.875 3.5 -3.171875 3.109375 -3.53125 C 2.78125 -3.828125 2.359375 -3.953125 1.921875 -3.953125 C 1.171875 -3.953125 0.5625 -3.578125 0.5625 -3.015625 C 0.5625 -2.75 0.734375 -2.59375 0.96875 -2.59375 C 1.203125 -2.59375 1.375 -2.765625 1.375 -3 C 1.375 -3.375 0.984375 -3.421875 0.984375 -3.421875 C 1.21875 -3.65625 1.640625 -3.734375 1.890625 -3.734375 C 2.34375 -3.734375 2.84375 -3.40625 2.84375 -2.625 L 2.84375 -2.328125 C 2.375 -2.3125 1.71875 -2.265625 1.125 -1.984375 C 0.484375 -1.671875 0.296875 -1.21875 0.296875 -0.859375 C 0.296875 -0.140625 1.140625 0.09375 1.734375 0.09375 C 2.46875 0.09375 2.8125 -0.390625 2.9375 -0.640625 C 2.96875 -0.265625 3.234375 0.046875 3.609375 0.046875 C 3.828125 0.046875 4.390625 -0.078125 4.390625 -0.78125 Z M 2.84375 -1.25 C 2.84375 -0.390625 2.1875 -0.125 1.796875 -0.125 C 1.390625 -0.125 1 -0.421875 1 -0.859375 C 1 -1.453125 1.5 -2.0625 2.84375 -2.125 Z M 2.84375 -1.25 "/>
</g>
<g id="glyph-1-4">
<path d="M 3.015625 -1.09375 L 3.015625 -1.59375 L 2.765625 -1.59375 L 2.765625 -1.125 C 2.765625 -0.46875 2.5 -0.15625 2.1875 -0.15625 C 1.59375 -0.15625 1.59375 -0.921875 1.59375 -1.078125 L 1.59375 -3.53125 L 2.875 -3.53125 L 2.875 -3.8125 L 1.59375 -3.8125 L 1.59375 -5.421875 L 1.34375 -5.421875 C 1.328125 -4.6875 1.03125 -3.78125 0.171875 -3.75 L 0.171875 -3.53125 L 0.9375 -3.53125 L 0.9375 -1.09375 C 0.9375 -0.109375 1.65625 0.09375 2.125 0.09375 C 2.703125 0.09375 3.015625 -0.46875 3.015625 -1.09375 Z M 3.015625 -1.09375 "/>
</g>
<g id="glyph-1-5">
<path d="M 1.828125 -0.015625 C 1.828125 -0.625 1.59375 -0.953125 1.25 -0.953125 C 0.9375 -0.953125 0.78125 -0.71875 0.78125 -0.484375 C 0.78125 -0.234375 0.9375 0 1.25 0 C 1.46875 0 1.609375 -0.140625 1.609375 -0.140625 C 1.609375 0.15625 1.609375 0.875 0.9375 1.515625 C 0.90625 1.546875 0.90625 1.59375 0.90625 1.59375 C 0.90625 1.640625 0.953125 1.703125 1.015625 1.703125 C 1.109375 1.703125 1.828125 1.03125 1.828125 -0.015625 Z M 1.828125 -0.015625 "/>
</g>
<g id="glyph-1-6">
<path d="M 4.734375 -1.90625 C 4.734375 -3.015625 3.859375 -3.90625 2.828125 -3.90625 C 2.34375 -3.90625 1.90625 -3.703125 1.578125 -3.34375 L 1.578125 -3.90625 L 0.265625 -3.8125 L 0.265625 -3.53125 C 0.890625 -3.53125 0.9375 -3.484375 0.9375 -3.09375 L 0.9375 1.03125 C 0.9375 1.4375 0.84375 1.4375 0.265625 1.4375 L 0.265625 1.71875 C 0.6875 1.6875 0.84375 1.6875 1.265625 1.6875 C 1.6875 1.6875 1.8125 1.6875 2.28125 1.71875 L 2.28125 1.4375 C 1.6875 1.4375 1.59375 1.4375 1.59375 1.03125 L 1.59375 -0.421875 C 1.828125 -0.1875 2.125 0.09375 2.703125 0.09375 C 3.765625 0.09375 4.734375 -0.75 4.734375 -1.90625 Z M 3.96875 -1.90625 C 3.96875 -0.90625 3.375 -0.125 2.65625 -0.125 C 2.265625 -0.125 1.921875 -0.359375 1.71875 -0.65625 C 1.59375 -0.84375 1.59375 -0.859375 1.59375 -1.03125 L 1.59375 -2.96875 C 1.890625 -3.484375 2.390625 -3.65625 2.75 -3.65625 C 3.4375 -3.65625 3.96875 -2.859375 3.96875 -1.90625 Z M 3.96875 -1.90625 "/>
</g>
<g id="glyph-1-7">
<path d="M 3.296875 -3.359375 C 3.296875 -3.640625 3.03125 -3.90625 2.625 -3.90625 C 2.09375 -3.90625 1.734375 -3.53125 1.53125 -2.984375 L 1.515625 -2.984375 L 1.515625 -3.90625 L 0.265625 -3.8125 L 0.265625 -3.53125 C 0.859375 -3.53125 0.9375 -3.46875 0.9375 -3.03125 L 0.9375 -0.6875 C 0.9375 -0.28125 0.84375 -0.28125 0.265625 -0.28125 L 0.265625 0 C 0.734375 -0.015625 0.84375 -0.03125 1.296875 -0.03125 L 2.421875 0 L 2.421875 -0.28125 L 2.25 -0.28125 C 1.59375 -0.28125 1.578125 -0.375 1.578125 -0.703125 L 1.578125 -2.015625 C 1.578125 -2.390625 1.671875 -3.6875 2.671875 -3.6875 L 2.671875 -3.671875 C 2.65625 -3.65625 2.515625 -3.5625 2.515625 -3.34375 C 2.515625 -3.109375 2.703125 -2.953125 2.90625 -2.953125 C 3.09375 -2.953125 3.296875 -3.09375 3.296875 -3.359375 Z M 3.296875 -3.359375 "/>
</g>
<g id="glyph-1-8">
<path d="M 3.765625 -1.046875 C 3.765625 -1.109375 3.71875 -1.171875 3.640625 -1.171875 C 3.5625 -1.171875 3.53125 -1.109375 3.515625 -1.0625 C 3.21875 -0.171875 2.4375 -0.15625 2.296875 -0.15625 C 1.875 -0.15625 1.515625 -0.390625 1.3125 -0.6875 C 1.03125 -1.125 1.015625 -1.65625 1.015625 -2.015625 L 3.53125 -2.015625 C 3.71875 -2.015625 3.765625 -2.015625 3.765625 -2.203125 C 3.765625 -3.109375 3.28125 -3.953125 2.140625 -3.953125 C 1.078125 -3.953125 0.25 -3.03125 0.25 -1.9375 C 0.25 -0.78125 1.1875 0.09375 2.265625 0.09375 C 3.34375 0.09375 3.765625 -0.84375 3.765625 -1.046875 Z M 3.171875 -2.234375 L 1.03125 -2.234375 C 1.109375 -3.59375 1.890625 -3.734375 2.140625 -3.734375 C 2.625 -3.734375 3.15625 -3.359375 3.171875 -2.234375 Z M 3.171875 -2.234375 "/>
</g>
<g id="glyph-1-9">
<path d="M 3.765625 -1.046875 C 3.765625 -1.15625 3.671875 -1.15625 3.640625 -1.15625 C 3.546875 -1.15625 3.546875 -1.140625 3.5 -0.984375 C 3.296875 -0.375 2.796875 -0.15625 2.34375 -0.15625 C 1.78125 -0.15625 1.0625 -0.609375 1.0625 -1.921875 C 1.0625 -3.296875 1.765625 -3.703125 2.296875 -3.703125 C 2.40625 -3.703125 2.890625 -3.6875 3.21875 -3.46875 C 3.03125 -3.4375 2.84375 -3.3125 2.84375 -3.046875 C 2.84375 -2.828125 3.03125 -2.65625 3.25 -2.65625 C 3.484375 -2.65625 3.671875 -2.796875 3.671875 -3.078125 C 3.671875 -3.625 3.046875 -3.953125 2.28125 -3.953125 C 1.140625 -3.953125 0.296875 -3.015625 0.296875 -1.90625 C 0.296875 -0.765625 1.21875 0.09375 2.265625 0.09375 C 3.484375 0.09375 3.765625 -0.96875 3.765625 -1.046875 Z M 3.765625 -1.046875 "/>
</g>
<g id="glyph-1-10">
<path d="M 2.234375 0 L 2.234375 -0.28125 C 1.65625 -0.28125 1.625 -0.3125 1.625 -0.65625 L 1.625 -3.90625 L 0.359375 -3.8125 L 0.359375 -3.53125 C 0.921875 -3.53125 1 -3.484375 1 -3.046875 L 1 -0.6875 C 1 -0.28125 0.90625 -0.28125 0.3125 -0.28125 L 0.3125 0 C 0.71875 -0.015625 0.90625 -0.03125 1.28125 -0.03125 C 1.4375 -0.03125 1.796875 -0.03125 2.234375 0 Z M 1.734375 -5.328125 C 1.734375 -5.59375 1.53125 -5.796875 1.265625 -5.796875 C 1 -5.796875 0.78125 -5.59375 0.78125 -5.328125 C 0.78125 -5.0625 1 -4.84375 1.265625 -4.84375 C 1.53125 -4.84375 1.734375 -5.0625 1.734375 -5.328125 Z M 1.734375 -5.328125 "/>
</g>
<g id="glyph-1-11">
<path d="M 3.265625 -1.125 C 3.265625 -1.53125 3.09375 -1.765625 2.890625 -1.96875 C 2.59375 -2.265625 2.28125 -2.328125 1.625 -2.453125 C 1.390625 -2.484375 0.75 -2.609375 0.75 -3.109375 C 0.75 -3.390625 0.953125 -3.765625 1.75 -3.765625 C 2.703125 -3.765625 2.765625 -3.03125 2.796875 -2.8125 C 2.796875 -2.703125 2.796875 -2.65625 2.90625 -2.65625 C 3.03125 -2.65625 3.03125 -2.703125 3.03125 -2.875 L 3.03125 -3.71875 C 3.03125 -3.875 3.03125 -3.953125 2.9375 -3.953125 C 2.890625 -3.953125 2.875 -3.953125 2.75 -3.84375 C 2.734375 -3.828125 2.65625 -3.75 2.609375 -3.703125 C 2.328125 -3.90625 2.0625 -3.953125 1.75 -3.953125 C 0.59375 -3.953125 0.296875 -3.3125 0.296875 -2.859375 C 0.296875 -2.578125 0.421875 -2.34375 0.625 -2.15625 C 0.921875 -1.875 1.265625 -1.8125 1.71875 -1.734375 C 2.15625 -1.65625 2.3125 -1.625 2.5 -1.46875 C 2.59375 -1.40625 2.8125 -1.234375 2.8125 -0.90625 C 2.8125 -0.125 1.921875 -0.125 1.796875 -0.125 C 0.90625 -0.125 0.671875 -0.875 0.5625 -1.34375 C 0.53125 -1.4375 0.53125 -1.484375 0.421875 -1.484375 C 0.296875 -1.484375 0.296875 -1.421875 0.296875 -1.265625 L 0.296875 -0.125 C 0.296875 0.015625 0.296875 0.09375 0.40625 0.09375 C 0.453125 0.09375 0.46875 0.09375 0.625 -0.078125 C 0.65625 -0.125 0.765625 -0.25 0.796875 -0.296875 C 1.171875 0.078125 1.578125 0.09375 1.796875 0.09375 C 2.890625 0.09375 3.265625 -0.53125 3.265625 -1.125 Z M 3.265625 -1.125 "/>
</g>
<g id="glyph-1-12">
<path d="M 2.296875 0 L 2.296875 -0.28125 C 1.71875 -0.28125 1.625 -0.28125 1.625 -0.6875 L 1.625 -6.125 L 0.3125 -6.03125 L 0.3125 -5.75 C 0.921875 -5.75 1 -5.6875 1 -5.265625 L 1 -0.6875 C 1 -0.28125 0.90625 -0.28125 0.3125 -0.28125 L 0.3125 0 C 0.734375 -0.015625 0.90625 -0.03125 1.3125 -0.03125 C 1.71875 -0.03125 1.875 -0.015625 2.296875 0 Z M 2.296875 0 "/>
</g>
<g id="glyph-1-13">
<path d="M 4.59375 -3.53125 L 4.59375 -3.8125 C 4.3125 -3.78125 4.03125 -3.78125 3.921875 -3.78125 C 3.671875 -3.78125 3.40625 -3.78125 3.15625 -3.8125 L 3.15625 -3.53125 C 3.5625 -3.515625 3.5625 -3.203125 3.5625 -3.15625 C 3.5625 -3.0625 3.515625 -2.96875 3.484375 -2.90625 L 2.59375 -0.796875 L 1.609375 -3.109375 C 1.546875 -3.234375 1.546875 -3.296875 1.546875 -3.296875 C 1.546875 -3.53125 1.859375 -3.53125 2.046875 -3.53125 L 2.046875 -3.8125 L 1.0625 -3.78125 C 1.03125 -3.78125 0.53125 -3.78125 0.1875 -3.8125 L 0.1875 -3.53125 C 0.578125 -3.53125 0.75 -3.515625 0.859375 -3.28125 L 2.25 0 L 2.03125 0.515625 C 1.84375 0.984375 1.578125 1.59375 1 1.59375 C 0.78125 1.59375 0.640625 1.46875 0.609375 1.453125 C 0.6875 1.453125 0.921875 1.375 0.921875 1.078125 C 0.921875 0.84375 0.765625 0.703125 0.5625 0.703125 C 0.328125 0.703125 0.171875 0.84375 0.171875 1.078125 C 0.171875 1.484375 0.546875 1.8125 1 1.8125 C 1.578125 1.8125 1.953125 1.296875 2.171875 0.8125 L 3.765625 -2.921875 C 3.859375 -3.15625 4.03125 -3.515625 4.59375 -3.53125 Z M 4.59375 -3.53125 "/>
</g>
<g id="glyph-1-14">
<path d="M 2.625 -2.21875 C 2.625 -2.9375 2.53125 -3.90625 2.0625 -4.890625 C 1.546875 -5.984375 0.71875 -6.625 0.625 -6.625 C 0.53125 -6.625 0.515625 -6.546875 0.515625 -6.53125 C 0.515625 -6.484375 0.53125 -6.453125 0.59375 -6.390625 C 1.109375 -5.9375 2.078125 -4.734375 2.078125 -2.21875 C 2.078125 -0.953125 1.84375 0.796875 0.5625 2 C 0.546875 2.015625 0.515625 2.0625 0.515625 2.09375 C 0.515625 2.125 0.53125 2.203125 0.625 2.203125 C 0.71875 2.203125 1.515625 1.5625 2 0.59375 C 2.421875 -0.25 2.625 -1.15625 2.625 -2.21875 Z M 2.625 -2.21875 "/>
</g>
<g id="glyph-2-0">
<path d="M 1.5 -3.03125 C 1.5 -3.234375 1.375 -3.4375 1.109375 -3.4375 C 0.921875 -3.4375 0.859375 -3.375 0.796875 -3.3125 C 0.796875 -3.53125 0.796875 -4.09375 1.34375 -4.578125 C 1.390625 -4.609375 1.40625 -4.640625 1.40625 -4.671875 C 1.40625 -4.703125 1.359375 -4.765625 1.3125 -4.765625 C 1.234375 -4.765625 0.609375 -4.234375 0.609375 -3.390625 C 0.609375 -2.984375 0.78125 -2.640625 1.109375 -2.640625 C 1.375 -2.640625 1.5 -2.859375 1.5 -3.03125 Z M 2.984375 -3.03125 C 2.984375 -3.234375 2.859375 -3.4375 2.578125 -3.4375 C 2.390625 -3.4375 2.328125 -3.375 2.28125 -3.3125 C 2.28125 -3.53125 2.28125 -4.09375 2.828125 -4.578125 C 2.875 -4.609375 2.890625 -4.640625 2.890625 -4.671875 C 2.890625 -4.703125 2.84375 -4.765625 2.796875 -4.765625 C 2.703125 -4.765625 2.09375 -4.234375 2.09375 -3.390625 C 2.09375 -2.984375 2.25 -2.640625 2.59375 -2.640625 C 2.859375 -2.640625 2.984375 -2.859375 2.984375 -3.03125 Z M 2.984375 -3.03125 "/>
</g>
<g id="glyph-2-1">
<path d="M 5 -1.8125 L 4.765625 -1.8125 C 4.59375 -0.765625 4.4375 -0.25 3.15625 -0.25 L 2.078125 -0.25 C 1.75 -0.25 1.75 -0.296875 1.75 -0.515625 L 1.75 -2.296875 L 2.4375 -2.296875 C 3.140625 -2.296875 3.234375 -2.09375 3.234375 -1.5 L 3.46875 -1.5 L 3.46875 -3.359375 L 3.234375 -3.359375 C 3.234375 -2.75 3.140625 -2.546875 2.4375 -2.546875 L 1.75 -2.546875 L 1.75 -4.15625 C 1.75 -4.359375 1.75 -4.421875 2.078125 -4.421875 L 3.109375 -4.421875 C 4.234375 -4.421875 4.4375 -4.046875 4.5625 -3.09375 L 4.796875 -3.09375 L 4.578125 -4.671875 L 0.390625 -4.671875 L 0.390625 -4.421875 L 0.546875 -4.421875 C 1.078125 -4.421875 1.09375 -4.359375 1.09375 -4.109375 L 1.09375 -0.5625 C 1.09375 -0.328125 1.078125 -0.25 0.546875 -0.25 L 0.390625 -0.25 L 0.390625 0 L 4.703125 0 Z M 5 -1.8125 "/>
</g>
<g id="glyph-2-2">
<path d="M 1.890625 0 L 1.890625 -0.25 C 1.484375 -0.25 1.421875 -0.25 1.421875 -0.53125 L 1.421875 -3.03125 L 0.40625 -2.953125 L 0.40625 -2.703125 C 0.84375 -2.703125 0.90625 -2.671875 0.90625 -2.328125 L 0.90625 -0.546875 C 0.90625 -0.25 0.828125 -0.25 0.390625 -0.25 L 0.390625 0 C 0.390625 0 0.875 -0.03125 1.15625 -0.03125 C 1.390625 -0.03125 1.640625 -0.015625 1.890625 0 Z M 1.5 -4.140625 C 1.5 -4.359375 1.328125 -4.53125 1.109375 -4.53125 C 0.875 -4.53125 0.71875 -4.34375 0.71875 -4.140625 C 0.71875 -3.921875 0.890625 -3.75 1.109375 -3.75 C 1.34375 -3.75 1.5 -3.9375 1.5 -4.140625 Z M 1.5 -4.140625 "/>
</g>
<g id="glyph-2-3">
<path d="M 3.75 -2.75 C 3.75 -2.90625 3.609375 -3.09375 3.34375 -3.09375 C 3.234375 -3.09375 2.859375 -3.078125 2.546875 -2.78125 C 2.34375 -2.9375 2.046875 -3.03125 1.75 -3.03125 C 1.03125 -3.03125 0.515625 -2.5625 0.515625 -2.015625 C 0.515625 -1.75 0.65625 -1.5 0.859375 -1.328125 C 0.796875 -1.265625 0.640625 -1.03125 0.640625 -0.765625 C 0.640625 -0.6875 0.671875 -0.359375 0.9375 -0.15625 C 0.625 -0.0625 0.265625 0.171875 0.265625 0.53125 C 0.265625 1.03125 1.03125 1.40625 1.953125 1.40625 C 2.828125 1.40625 3.640625 1.0625 3.640625 0.515625 C 3.640625 0.3125 3.546875 -0.0625 3.171875 -0.265625 C 2.765625 -0.484375 2.359375 -0.484375 1.703125 -0.484375 C 1.546875 -0.484375 1.296875 -0.484375 1.25 -0.484375 C 1.03125 -0.53125 0.90625 -0.75 0.90625 -0.9375 C 0.90625 -1.109375 0.953125 -1.171875 0.984375 -1.21875 C 1.09375 -1.15625 1.34375 -1.015625 1.734375 -1.015625 C 2.453125 -1.015625 2.96875 -1.484375 2.96875 -2.015625 C 2.96875 -2.296875 2.84375 -2.5 2.671875 -2.6875 C 2.984375 -2.90625 3.25 -2.90625 3.375 -2.90625 C 3.34375 -2.875 3.3125 -2.859375 3.3125 -2.75 C 3.3125 -2.609375 3.40625 -2.515625 3.53125 -2.515625 C 3.625 -2.515625 3.75 -2.59375 3.75 -2.75 Z M 2.40625 -2.015625 C 2.40625 -1.90625 2.40625 -1.640625 2.28125 -1.453125 C 2.171875 -1.34375 2 -1.21875 1.75 -1.21875 C 1.078125 -1.21875 1.078125 -1.875 1.078125 -2.015625 C 1.078125 -2.125 1.078125 -2.40625 1.203125 -2.578125 C 1.3125 -2.703125 1.484375 -2.828125 1.734375 -2.828125 C 2.40625 -2.828125 2.40625 -2.171875 2.40625 -2.015625 Z M 3.21875 0.515625 C 3.21875 0.890625 2.671875 1.203125 1.953125 1.203125 C 1.234375 1.203125 0.6875 0.875 0.6875 0.515625 C 0.6875 0.28125 0.90625 -0.015625 1.34375 -0.015625 L 1.75 -0.015625 C 2.359375 -0.015625 3.21875 -0.015625 3.21875 0.515625 Z M 3.21875 0.515625 "/>
</g>
<g id="glyph-2-4">
<path d="M 4.0625 0 L 4.0625 -0.25 C 3.609375 -0.25 3.546875 -0.25 3.546875 -0.546875 L 3.546875 -2.078125 C 3.546875 -2.6875 3.25 -3.03125 2.515625 -3.03125 C 1.890625 -3.03125 1.5625 -2.671875 1.40625 -2.40625 L 1.40625 -4.765625 L 0.375 -4.703125 L 0.375 -4.453125 C 0.828125 -4.453125 0.890625 -4.40625 0.890625 -4.0625 L 0.890625 -0.546875 C 0.890625 -0.25 0.8125 -0.25 0.375 -0.25 L 0.375 0 C 0.375 0 0.859375 -0.03125 1.15625 -0.03125 C 1.40625 -0.03125 1.890625 0 1.953125 0 L 1.953125 -0.25 C 1.5 -0.25 1.4375 -0.25 1.4375 -0.546875 L 1.4375 -1.78125 C 1.4375 -2.5 2 -2.84375 2.453125 -2.84375 C 2.9375 -2.84375 3 -2.46875 3 -2.109375 L 3 -0.546875 C 3 -0.25 2.921875 -0.25 2.484375 -0.25 L 2.484375 0 C 2.484375 0 2.984375 -0.03125 3.265625 -0.03125 C 3.515625 -0.03125 4 0 4.0625 0 Z M 4.0625 0 "/>
</g>
<g id="glyph-2-5">
<path d="M 2.578125 -0.859375 L 2.578125 -1.25 L 2.34375 -1.25 L 2.34375 -0.875 C 2.34375 -0.40625 2.125 -0.15625 1.859375 -0.15625 C 1.375 -0.15625 1.375 -0.734375 1.375 -0.859375 L 1.375 -2.71875 L 2.453125 -2.71875 L 2.453125 -2.96875 L 1.375 -2.96875 L 1.375 -4.234375 L 1.140625 -4.234375 C 1.140625 -3.609375 0.859375 -2.921875 0.203125 -2.90625 L 0.203125 -2.71875 L 0.84375 -2.71875 L 0.84375 -0.859375 C 0.84375 -0.09375 1.421875 0.0625 1.796875 0.0625 C 2.265625 0.0625 2.578125 -0.328125 2.578125 -0.859375 Z M 2.578125 -0.859375 "/>
</g>
<g id="glyph-2-6">
<path d="M 2.796875 -0.90625 C 2.796875 -1.15625 2.6875 -1.375 2.5 -1.53125 C 2.234375 -1.78125 1.921875 -1.828125 1.6875 -1.875 C 1.140625 -1.96875 0.6875 -2.046875 0.6875 -2.40625 C 0.6875 -2.640625 0.875 -2.90625 1.53125 -2.90625 C 2.328125 -2.90625 2.359375 -2.34375 2.375 -2.140625 C 2.375 -2.0625 2.46875 -2.0625 2.484375 -2.0625 C 2.609375 -2.0625 2.609375 -2.125 2.609375 -2.25 L 2.609375 -2.890625 C 2.609375 -3 2.609375 -3.0625 2.515625 -3.0625 C 2.46875 -3.0625 2.46875 -3.0625 2.375 -2.984375 C 2.359375 -2.984375 2.296875 -2.921875 2.25 -2.875 C 2.046875 -3.03125 1.78125 -3.0625 1.53125 -3.0625 C 0.546875 -3.0625 0.3125 -2.546875 0.3125 -2.203125 C 0.3125 -1.984375 0.40625 -1.8125 0.578125 -1.671875 C 0.828125 -1.4375 1.09375 -1.390625 1.515625 -1.328125 C 1.859375 -1.265625 2.421875 -1.171875 2.421875 -0.703125 C 2.421875 -0.4375 2.234375 -0.125 1.578125 -0.125 C 0.921875 -0.125 0.671875 -0.5625 0.546875 -1.03125 C 0.53125 -1.109375 0.515625 -1.140625 0.421875 -1.140625 C 0.3125 -1.140625 0.3125 -1.09375 0.3125 -0.953125 L 0.3125 -0.109375 C 0.3125 0 0.3125 0.0625 0.40625 0.0625 C 0.46875 0.0625 0.59375 -0.078125 0.734375 -0.234375 C 1.03125 0.0625 1.40625 0.0625 1.578125 0.0625 C 2.46875 0.0625 2.796875 -0.40625 2.796875 -0.90625 Z M 2.796875 -0.90625 "/>
</g>
<g id="glyph-2-7">
<path d="M 3.21875 -0.828125 C 3.21875 -0.859375 3.203125 -0.921875 3.09375 -0.921875 C 3.015625 -0.921875 3 -0.875 2.984375 -0.8125 C 2.765625 -0.25 2.234375 -0.15625 2 -0.15625 C 1.671875 -0.15625 1.359375 -0.296875 1.15625 -0.5625 C 0.90625 -0.875 0.890625 -1.296875 0.890625 -1.5625 L 3.03125 -1.5625 C 3.171875 -1.5625 3.21875 -1.5625 3.21875 -1.71875 C 3.21875 -2.328125 2.875 -3.0625 1.859375 -3.0625 C 0.953125 -3.0625 0.265625 -2.34375 0.265625 -1.5 C 0.265625 -0.625 1.03125 0.0625 1.953125 0.0625 C 2.875 0.0625 3.21875 -0.671875 3.21875 -0.828125 Z M 2.734375 -1.75 L 0.90625 -1.75 C 0.96875 -2.71875 1.59375 -2.875 1.859375 -2.875 C 2.703125 -2.875 2.734375 -1.921875 2.734375 -1.75 Z M 2.734375 -1.75 "/>
</g>
<g id="glyph-2-8">
<path d="M 6.171875 0 L 6.171875 -0.25 C 5.71875 -0.25 5.65625 -0.25 5.65625 -0.546875 L 5.65625 -2.078125 C 5.65625 -2.6875 5.359375 -3.03125 4.625 -3.03125 C 4.078125 -3.03125 3.703125 -2.734375 3.515625 -2.390625 C 3.375 -2.875 3.015625 -3.03125 2.515625 -3.03125 C 1.953125 -3.03125 1.578125 -2.71875 1.390625 -2.359375 L 1.375 -2.359375 L 1.375 -3.03125 L 0.375 -2.953125 L 0.375 -2.703125 C 0.828125 -2.703125 0.890625 -2.65625 0.890625 -2.328125 L 0.890625 -0.546875 C 0.890625 -0.25 0.8125 -0.25 0.375 -0.25 L 0.375 0 C 0.375 0 0.859375 -0.03125 1.15625 -0.03125 C 1.40625 -0.03125 1.890625 0 1.953125 0 L 1.953125 -0.25 C 1.5 -0.25 1.4375 -0.25 1.4375 -0.546875 L 1.4375 -1.78125 C 1.4375 -2.5 2 -2.84375 2.453125 -2.84375 C 2.9375 -2.84375 3 -2.46875 3 -2.109375 L 3 -0.546875 C 3 -0.25 2.921875 -0.25 2.484375 -0.25 L 2.484375 0 C 2.484375 0 2.984375 -0.03125 3.265625 -0.03125 C 3.515625 -0.03125 4 0 4.0625 0 L 4.0625 -0.25 C 3.609375 -0.25 3.546875 -0.25 3.546875 -0.546875 L 3.546875 -1.78125 C 3.546875 -2.5 4.109375 -2.84375 4.5625 -2.84375 C 5.046875 -2.84375 5.109375 -2.46875 5.109375 -2.109375 L 5.109375 -0.546875 C 5.109375 -0.25 5.046875 -0.25 4.59375 -0.25 L 4.59375 0 C 4.59375 0 5.09375 -0.03125 5.375 -0.03125 C 5.625 -0.03125 6.109375 0 6.171875 0 Z M 6.171875 0 "/>
</g>
<g id="glyph-2-9">
<path d="M 2.15625 -1.25 L 2.15625 -1.71875 L 0.140625 -1.71875 L 0.140625 -1.25 Z M 2.15625 -1.25 "/>
</g>
<g id="glyph-2-10">
<path d="M 2.796875 -2.59375 C 2.796875 -2.828125 2.578125 -3.03125 2.25 -3.03125 C 1.90625 -3.03125 1.53125 -2.8125 1.328125 -2.296875 L 1.3125 -2.296875 L 1.3125 -3.03125 L 0.34375 -2.953125 L 0.34375 -2.703125 C 0.796875 -2.703125 0.859375 -2.65625 0.859375 -2.328125 L 0.859375 -0.546875 C 0.859375 -0.25 0.78125 -0.25 0.34375 -0.25 L 0.34375 0 C 0.375 0 0.84375 -0.03125 1.125 -0.03125 L 2.015625 0 L 2.015625 -0.25 L 1.875 -0.25 C 1.375 -0.25 1.375 -0.328125 1.375 -0.5625 L 1.375 -1.5625 C 1.375 -2.140625 1.640625 -2.84375 2.296875 -2.84375 C 2.234375 -2.796875 2.171875 -2.703125 2.171875 -2.59375 C 2.171875 -2.359375 2.34375 -2.28125 2.484375 -2.28125 C 2.640625 -2.28125 2.796875 -2.390625 2.796875 -2.59375 Z M 2.796875 -2.59375 "/>
</g>
<g id="glyph-2-11">
<path d="M 4.0625 0 L 4.0625 -0.25 C 3.59375 -0.25 3.546875 -0.296875 3.546875 -0.625 L 3.546875 -3.03125 L 2.484375 -2.953125 L 2.484375 -2.703125 C 2.9375 -2.703125 3 -2.65625 3 -2.328125 L 3 -1.140625 C 3 -0.546875 2.609375 -0.125 2.078125 -0.125 C 1.453125 -0.125 1.4375 -0.421875 1.4375 -0.765625 L 1.4375 -3.03125 L 0.375 -2.953125 L 0.375 -2.703125 C 0.890625 -2.703125 0.890625 -2.6875 0.890625 -2.078125 L 0.890625 -1.046875 C 0.890625 -0.578125 0.890625 0.0625 2.03125 0.0625 C 2.1875 0.0625 2.6875 0.0625 3.015625 -0.515625 L 3.03125 -0.515625 L 3.03125 0.0625 Z M 4.0625 0 "/>
</g>
<g id="glyph-2-12">
<path d="M 3.21875 -0.828125 C 3.21875 -0.90625 3.125 -0.90625 3.09375 -0.90625 C 3.015625 -0.90625 3 -0.890625 2.96875 -0.796875 C 2.8125 -0.359375 2.453125 -0.15625 2.03125 -0.15625 C 1.5625 -0.15625 0.9375 -0.5 0.9375 -1.484375 C 0.9375 -2.359375 1.375 -2.84375 2 -2.84375 C 2.09375 -2.84375 2.421875 -2.84375 2.671875 -2.75 C 2.546875 -2.6875 2.484375 -2.578125 2.484375 -2.4375 C 2.484375 -2.25 2.609375 -2.125 2.8125 -2.125 C 2.984375 -2.125 3.140625 -2.234375 3.140625 -2.453125 C 3.140625 -3.0625 2.171875 -3.0625 1.984375 -3.0625 C 0.953125 -3.0625 0.3125 -2.28125 0.3125 -1.484375 C 0.3125 -0.625 1.046875 0.0625 1.953125 0.0625 C 2.984375 0.0625 3.21875 -0.75 3.21875 -0.828125 Z M 3.21875 -0.828125 "/>
</g>
<g id="glyph-2-13">
<path d="M 4 0 L 4 -0.25 C 3.53125 -0.25 3.484375 -0.296875 3.484375 -0.625 L 3.484375 -4.765625 L 2.453125 -4.703125 L 2.453125 -4.453125 C 2.90625 -4.453125 2.96875 -4.40625 2.96875 -4.0625 L 2.96875 -2.640625 C 2.703125 -2.890625 2.375 -3.03125 2 -3.03125 C 1.09375 -3.03125 0.3125 -2.34375 0.3125 -1.484375 C 0.3125 -0.625 1.046875 0.0625 1.921875 0.0625 C 2.484375 0.0625 2.8125 -0.234375 2.9375 -0.359375 L 2.9375 0.0625 Z M 2.9375 -0.71875 C 2.75 -0.40625 2.40625 -0.125 1.953125 -0.125 C 1.578125 -0.125 1.296875 -0.34375 1.15625 -0.546875 C 1.03125 -0.75 0.9375 -1.03125 0.9375 -1.46875 C 0.9375 -1.625 0.9375 -2.140625 1.21875 -2.46875 C 1.5 -2.78125 1.828125 -2.84375 2.03125 -2.84375 C 2.359375 -2.84375 2.65625 -2.6875 2.859375 -2.4375 C 2.9375 -2.328125 2.9375 -2.328125 2.9375 -2.1875 Z M 2.9375 -0.71875 "/>
</g>
<g id="glyph-2-14">
<path d="M 4.0625 0 L 4.0625 -0.25 C 3.609375 -0.25 3.546875 -0.25 3.546875 -0.546875 L 3.546875 -2.078125 C 3.546875 -2.6875 3.25 -3.03125 2.515625 -3.03125 C 1.953125 -3.03125 1.578125 -2.71875 1.390625 -2.359375 L 1.375 -2.359375 L 1.375 -3.03125 L 0.375 -2.953125 L 0.375 -2.703125 C 0.828125 -2.703125 0.890625 -2.65625 0.890625 -2.328125 L 0.890625 -0.546875 C 0.890625 -0.25 0.8125 -0.25 0.375 -0.25 L 0.375 0 C 0.375 0 0.859375 -0.03125 1.15625 -0.03125 C 1.40625 -0.03125 1.890625 0 1.953125 0 L 1.953125 -0.25 C 1.5 -0.25 1.4375 -0.25 1.4375 -0.546875 L 1.4375 -1.78125 C 1.4375 -2.5 2 -2.84375 2.453125 -2.84375 C 2.9375 -2.84375 3 -2.46875 3 -2.109375 L 3 -0.546875 C 3 -0.25 2.921875 -0.25 2.484375 -0.25 L 2.484375 0 C 2.484375 0 2.984375 -0.03125 3.265625 -0.03125 C 3.515625 -0.03125 4 0 4.0625 0 Z M 4.0625 0 "/>
</g>
<g id="glyph-2-15">
<path d="M 3.90625 -2.71875 L 3.90625 -2.96875 C 3.734375 -2.953125 3.546875 -2.9375 3.375 -2.9375 C 3.203125 -2.9375 2.9375 -2.9375 2.75 -2.96875 L 2.75 -2.71875 C 3.046875 -2.703125 3.046875 -2.46875 3.046875 -2.453125 C 3.046875 -2.421875 3.03125 -2.34375 2.984375 -2.25 L 2.21875 -0.5625 L 1.359375 -2.421875 C 1.359375 -2.421875 1.3125 -2.515625 1.3125 -2.5625 C 1.3125 -2.71875 1.546875 -2.71875 1.671875 -2.71875 L 1.671875 -2.96875 C 1.671875 -2.96875 1.171875 -2.9375 0.890625 -2.9375 C 0.6875 -2.9375 0.40625 -2.9375 0.21875 -2.96875 L 0.21875 -2.71875 C 0.59375 -2.71875 0.671875 -2.703125 0.78125 -2.46875 L 1.859375 -0.078125 C 1.890625 0 1.9375 0.0625 2.0625 0.0625 C 2.1875 0.0625 2.21875 0 2.25 -0.0625 L 3.265625 -2.296875 C 3.453125 -2.703125 3.796875 -2.71875 3.90625 -2.71875 Z M 3.90625 -2.71875 "/>
</g>
<g id="glyph-2-16">
<path d="M 5.390625 -2.71875 L 5.390625 -2.96875 C 5.203125 -2.9375 5.09375 -2.9375 4.890625 -2.9375 C 4.6875 -2.9375 4.421875 -2.9375 4.21875 -2.96875 L 4.21875 -2.71875 C 4.46875 -2.703125 4.578125 -2.578125 4.578125 -2.40625 C 4.578125 -2.359375 4.578125 -2.34375 4.53125 -2.25 L 3.875 -0.53125 L 3.125 -2.40625 C 3.109375 -2.453125 3.09375 -2.5 3.09375 -2.546875 C 3.09375 -2.6875 3.265625 -2.71875 3.46875 -2.71875 L 3.46875 -2.96875 C 3.21875 -2.9375 2.96875 -2.9375 2.71875 -2.9375 C 2.515625 -2.9375 2.3125 -2.953125 2.125 -2.96875 L 2.125 -2.71875 C 2.28125 -2.71875 2.421875 -2.71875 2.515625 -2.65625 C 2.609375 -2.59375 2.671875 -2.359375 2.671875 -2.359375 C 2.671875 -2.359375 2.65625 -2.296875 2.640625 -2.28125 L 2 -0.640625 L 1.296875 -2.40625 C 1.265625 -2.515625 1.265625 -2.515625 1.265625 -2.546875 C 1.265625 -2.71875 1.5 -2.71875 1.625 -2.71875 L 1.625 -2.96875 C 1.625 -2.96875 1.125 -2.9375 0.859375 -2.9375 C 0.640625 -2.9375 0.421875 -2.9375 0.203125 -2.96875 L 0.203125 -2.71875 C 0.46875 -2.71875 0.625 -2.71875 0.703125 -2.515625 L 1.65625 -0.09375 C 1.703125 0.015625 1.71875 0.0625 1.84375 0.0625 C 1.96875 0.0625 1.984375 0.015625 2.015625 -0.078125 L 2.796875 -2.046875 L 3.5625 -0.09375 C 3.609375 0 3.625 0.0625 3.75 0.0625 C 3.875 0.0625 3.890625 0.015625 3.9375 -0.09375 L 4.8125 -2.296875 C 4.953125 -2.640625 5.171875 -2.703125 5.390625 -2.71875 Z M 5.390625 -2.71875 "/>
</g>
<g id="glyph-2-17">
<path d="M 1.59375 -0.046875 C 1.59375 -0.453125 1.4375 -0.796875 1.109375 -0.796875 C 0.859375 -0.796875 0.71875 -0.609375 0.71875 -0.390625 C 0.71875 -0.234375 0.828125 0 1.109375 0 C 1.28125 0 1.390625 -0.109375 1.390625 -0.109375 C 1.390625 0.078125 1.390625 0.65625 0.859375 1.140625 C 0.828125 1.171875 0.8125 1.203125 0.8125 1.234375 C 0.8125 1.265625 0.859375 1.328125 0.90625 1.328125 C 1 1.328125 1.59375 0.796875 1.59375 -0.046875 Z M 1.59375 -0.046875 "/>
</g>
<g id="glyph-2-18">
<path d="M 3.53125 -1.1875 C 3.53125 -1.71875 3.09375 -2.265625 2.34375 -2.421875 C 3.0625 -2.6875 3.328125 -3.203125 3.328125 -3.609375 C 3.328125 -4.15625 2.6875 -4.5625 1.9375 -4.5625 C 1.171875 -4.5625 0.578125 -4.1875 0.578125 -3.640625 C 0.578125 -3.40625 0.734375 -3.28125 0.9375 -3.28125 C 1.15625 -3.28125 1.296875 -3.4375 1.296875 -3.625 C 1.296875 -3.828125 1.15625 -3.96875 0.9375 -3.984375 C 1.1875 -4.296875 1.65625 -4.359375 1.90625 -4.359375 C 2.21875 -4.359375 2.65625 -4.21875 2.65625 -3.609375 C 2.65625 -3.328125 2.5625 -3.015625 2.375 -2.796875 C 2.15625 -2.53125 1.953125 -2.515625 1.609375 -2.5 C 1.4375 -2.484375 1.4375 -2.484375 1.390625 -2.484375 C 1.390625 -2.484375 1.328125 -2.46875 1.328125 -2.390625 C 1.328125 -2.296875 1.390625 -2.296875 1.5 -2.296875 L 1.875 -2.296875 C 2.40625 -2.296875 2.796875 -1.921875 2.796875 -1.1875 C 2.796875 -0.34375 2.296875 -0.078125 1.90625 -0.078125 C 1.625 -0.078125 1.03125 -0.15625 0.734375 -0.5625 C 1.0625 -0.578125 1.140625 -0.796875 1.140625 -0.953125 C 1.140625 -1.171875 0.96875 -1.328125 0.75 -1.328125 C 0.5625 -1.328125 0.375 -1.203125 0.375 -0.921875 C 0.375 -0.28125 1.09375 0.140625 1.921875 0.140625 C 2.875 0.140625 3.53125 -0.5 3.53125 -1.1875 Z M 3.53125 -1.1875 "/>
</g>
<g id="glyph-2-19">
<path d="M 3.546875 -2.1875 C 3.546875 -2.953125 3.453125 -3.5 3.140625 -3.96875 C 2.921875 -4.296875 2.5 -4.5625 1.953125 -4.5625 C 0.359375 -4.5625 0.359375 -2.6875 0.359375 -2.1875 C 0.359375 -1.703125 0.359375 0.140625 1.953125 0.140625 C 3.546875 0.140625 3.546875 -1.703125 3.546875 -2.1875 Z M 2.921875 -2.28125 C 2.921875 -1.78125 2.921875 -1.265625 2.828125 -0.828125 C 2.6875 -0.203125 2.234375 -0.0625 1.953125 -0.0625 C 1.640625 -0.0625 1.21875 -0.234375 1.078125 -0.796875 C 0.984375 -1.203125 0.984375 -1.78125 0.984375 -2.28125 C 0.984375 -2.78125 0.984375 -3.3125 1.09375 -3.6875 C 1.234375 -4.234375 1.671875 -4.375 1.953125 -4.375 C 2.328125 -4.375 2.6875 -4.140625 2.8125 -3.75 C 2.921875 -3.375 2.921875 -2.875 2.921875 -2.28125 Z M 2.921875 -2.28125 "/>
</g>
<g id="glyph-2-20">
<path d="M 3.84375 -1.734375 L 3.84375 -1.921875 L 0.0625 -1.921875 L 0.0625 -1.734375 Z M 3.84375 -1.734375 "/>
</g>
<g id="glyph-2-21">
<path d="M 3.640625 -1.125 L 3.640625 -1.375 L 2.875 -1.375 L 2.875 -4.4375 C 2.875 -4.578125 2.875 -4.640625 2.71875 -4.640625 C 2.640625 -4.640625 2.609375 -4.640625 2.546875 -4.53125 L 0.265625 -1.375 L 0.265625 -1.125 L 2.296875 -1.125 L 2.296875 -0.5625 C 2.296875 -0.328125 2.296875 -0.25 1.734375 -0.25 L 1.546875 -0.25 L 1.546875 0 L 2.578125 -0.03125 L 3.609375 0 L 3.609375 -0.25 L 3.4375 -0.25 C 2.875 -0.25 2.875 -0.328125 2.875 -0.5625 L 2.875 -1.125 Z M 2.34375 -1.375 L 0.515625 -1.375 L 2.34375 -3.890625 Z M 2.34375 -1.375 "/>
</g>
<g id="glyph-2-22">
<path d="M 3.46875 -1.375 C 3.46875 -2.15625 2.875 -2.875 2.03125 -2.875 C 1.71875 -2.875 1.375 -2.796875 1.0625 -2.53125 L 1.0625 -3.84375 C 1.421875 -3.75 1.625 -3.75 1.734375 -3.75 C 2.640625 -3.75 3.171875 -4.359375 3.171875 -4.46875 C 3.171875 -4.546875 3.125 -4.5625 3.09375 -4.5625 C 3.09375 -4.5625 3.0625 -4.5625 3.03125 -4.546875 C 2.875 -4.484375 2.515625 -4.34375 2 -4.34375 C 1.8125 -4.34375 1.4375 -4.359375 1 -4.53125 C 0.921875 -4.5625 0.90625 -4.5625 0.90625 -4.5625 C 0.8125 -4.5625 0.8125 -4.484375 0.8125 -4.375 L 0.8125 -2.34375 C 0.8125 -2.234375 0.8125 -2.15625 0.921875 -2.15625 C 0.984375 -2.15625 1 -2.171875 1.0625 -2.25 C 1.359375 -2.625 1.78125 -2.6875 2.015625 -2.6875 C 2.4375 -2.6875 2.625 -2.34375 2.65625 -2.296875 C 2.78125 -2.0625 2.8125 -1.8125 2.8125 -1.40625 C 2.8125 -1.203125 2.8125 -0.796875 2.609375 -0.5 C 2.4375 -0.25 2.140625 -0.078125 1.8125 -0.078125 C 1.359375 -0.078125 0.90625 -0.328125 0.734375 -0.78125 C 0.984375 -0.765625 1.125 -0.9375 1.125 -1.125 C 1.125 -1.421875 0.859375 -1.46875 0.78125 -1.46875 C 0.78125 -1.46875 0.4375 -1.46875 0.4375 -1.09375 C 0.4375 -0.484375 1 0.140625 1.828125 0.140625 C 2.703125 0.140625 3.46875 -0.515625 3.46875 -1.375 Z M 3.46875 -1.375 "/>
</g>
<g id="glyph-2-23">
<path d="M 3.640625 -1.46875 C 3.640625 -2.328125 2.90625 -3.0625 1.953125 -3.0625 C 1 -3.0625 0.265625 -2.328125 0.265625 -1.46875 C 0.265625 -0.609375 1.03125 0.0625 1.953125 0.0625 C 2.875 0.0625 3.640625 -0.609375 3.640625 -1.46875 Z M 3.015625 -1.53125 C 3.015625 -1.203125 2.984375 -0.828125 2.796875 -0.546875 C 2.609375 -0.28125 2.296875 -0.15625 1.953125 -0.15625 C 1.703125 -0.15625 1.328125 -0.234375 1.09375 -0.578125 C 0.921875 -0.859375 0.890625 -1.203125 0.890625 -1.53125 C 0.890625 -1.828125 0.90625 -2.234375 1.140625 -2.515625 C 1.3125 -2.71875 1.609375 -2.875 1.953125 -2.875 C 2.359375 -2.875 2.640625 -2.6875 2.796875 -2.46875 C 2.984375 -2.203125 3.015625 -1.859375 3.015625 -1.53125 Z M 3.015625 -1.53125 "/>
</g>
<g id="glyph-2-24">
<path d="M 3.734375 -0.625 L 3.734375 -1 L 3.5 -1 L 3.5 -0.625 C 3.5 -0.5625 3.5 -0.234375 3.25 -0.234375 C 3 -0.234375 3 -0.546875 3 -0.640625 L 3 -1.84375 C 3 -2.203125 3 -2.46875 2.6875 -2.71875 C 2.40625 -2.953125 2.0625 -3.0625 1.65625 -3.0625 C 1.015625 -3.0625 0.546875 -2.8125 0.546875 -2.40625 C 0.546875 -2.171875 0.703125 -2.0625 0.875 -2.0625 C 1.0625 -2.0625 1.203125 -2.203125 1.203125 -2.390625 C 1.203125 -2.5 1.140625 -2.640625 0.96875 -2.703125 C 1.203125 -2.875 1.609375 -2.875 1.65625 -2.875 C 2.03125 -2.875 2.453125 -2.625 2.453125 -2.046875 L 2.453125 -1.828125 C 2.078125 -1.8125 1.625 -1.796875 1.125 -1.609375 C 0.5 -1.375 0.3125 -1 0.3125 -0.6875 C 0.3125 -0.109375 1.03125 0.0625 1.515625 0.0625 C 2.0625 0.0625 2.390625 -0.234375 2.53125 -0.515625 C 2.5625 -0.234375 2.75 0.03125 3.0625 0.03125 C 3.0625 0.03125 3.734375 0.03125 3.734375 -0.625 Z M 2.453125 -0.96875 C 2.453125 -0.3125 1.875 -0.125 1.5625 -0.125 C 1.21875 -0.125 0.890625 -0.359375 0.890625 -0.6875 C 0.890625 -1.078125 1.21875 -1.609375 2.453125 -1.65625 Z M 2.453125 -0.96875 "/>
</g>
<g id="glyph-2-25">
<path d="M 4.015625 -1.484375 C 4.015625 -2.328125 3.3125 -3.03125 2.40625 -3.03125 C 2 -3.03125 1.609375 -2.859375 1.375 -2.625 L 1.375 -4.765625 L 0.34375 -4.703125 L 0.34375 -4.453125 C 0.796875 -4.453125 0.859375 -4.390625 0.859375 -4.046875 L 0.859375 0 L 1.09375 0 L 1.328125 -0.421875 C 1.59375 -0.078125 1.96875 0.0625 2.328125 0.0625 C 3.234375 0.0625 4.015625 -0.609375 4.015625 -1.484375 Z M 3.390625 -1.484375 C 3.390625 -1.328125 3.390625 -0.8125 3.109375 -0.5 C 2.828125 -0.1875 2.5 -0.125 2.296875 -0.125 C 1.75 -0.125 1.46875 -0.5625 1.390625 -0.703125 L 1.390625 -2.296875 C 1.59375 -2.625 1.953125 -2.84375 2.375 -2.84375 C 2.75 -2.84375 3.03125 -2.625 3.171875 -2.40625 C 3.3125 -2.21875 3.390625 -1.953125 3.390625 -1.484375 Z M 3.390625 -1.484375 "/>
</g>
<g id="glyph-2-26">
<path d="M 1.5 -0.390625 C 1.5 -0.625 1.3125 -0.796875 1.109375 -0.796875 C 0.875 -0.796875 0.71875 -0.59375 0.71875 -0.40625 C 0.71875 -0.15625 0.90625 0 1.109375 0 C 1.34375 0 1.5 -0.1875 1.5 -0.390625 Z M 1.5 -0.390625 "/>
</g>
<g id="glyph-2-27">
<path d="M 1.609375 -4.015625 C 1.609375 -4.421875 1.4375 -4.765625 1.109375 -4.765625 C 0.84375 -4.765625 0.71875 -4.5625 0.71875 -4.375 C 0.71875 -4.1875 0.84375 -3.984375 1.109375 -3.984375 C 1.3125 -3.984375 1.375 -4.046875 1.421875 -4.109375 C 1.421875 -3.890625 1.421875 -3.328125 0.875 -2.84375 C 0.828125 -2.8125 0.8125 -2.78125 0.8125 -2.75 C 0.8125 -2.703125 0.859375 -2.640625 0.90625 -2.640625 C 0.984375 -2.640625 1.609375 -3.171875 1.609375 -4.015625 Z M 3.09375 -4.015625 C 3.09375 -4.421875 2.921875 -4.765625 2.578125 -4.765625 C 2.328125 -4.765625 2.1875 -4.5625 2.1875 -4.375 C 2.1875 -4.1875 2.3125 -3.984375 2.59375 -3.984375 C 2.78125 -3.984375 2.84375 -4.046875 2.890625 -4.109375 C 2.890625 -3.890625 2.890625 -3.328125 2.34375 -2.84375 C 2.296875 -2.8125 2.296875 -2.78125 2.296875 -2.75 C 2.296875 -2.703125 2.34375 -2.640625 2.390625 -2.640625 C 2.46875 -2.640625 3.09375 -3.171875 3.09375 -4.015625 Z M 3.09375 -4.015625 "/>
</g>
<g id="glyph-2-28">
<path d="M 4 1.328125 L 4 1.09375 C 3.546875 1.09375 3.484375 1.09375 3.484375 0.796875 L 3.484375 -3.03125 L 3.265625 -3.03125 L 3.03125 -2.4375 C 2.8125 -2.765625 2.46875 -3.03125 1.984375 -3.03125 C 1.09375 -3.03125 0.3125 -2.359375 0.3125 -1.484375 C 0.3125 -0.625 1.046875 0.0625 1.921875 0.0625 C 2.46875 0.0625 2.765625 -0.234375 2.9375 -0.40625 L 2.9375 0.796875 C 2.9375 1.09375 2.859375 1.09375 2.421875 1.09375 L 2.421875 1.328125 C 2.421875 1.328125 2.921875 1.3125 3.203125 1.3125 C 3.453125 1.3125 3.9375 1.328125 4 1.328125 Z M 2.96875 -0.984375 C 2.96875 -0.859375 2.96875 -0.84375 2.859375 -0.65625 C 2.65625 -0.328125 2.3125 -0.125 1.953125 -0.125 C 1.390625 -0.125 0.9375 -0.75 0.9375 -1.46875 C 0.9375 -2.28125 1.484375 -2.8125 2.03125 -2.8125 C 2.609375 -2.8125 2.96875 -2.25 2.96875 -1.859375 Z M 2.96875 -0.984375 "/>
</g>
<g id="glyph-2-29">
<path d="M 3.9375 0 L 3.9375 -0.25 C 3.671875 -0.25 3.53125 -0.265625 3.328125 -0.515625 L 2.21875 -1.859375 C 3.0625 -2.515625 3.296875 -2.703125 3.765625 -2.71875 L 3.765625 -2.96875 C 3.625 -2.953125 3.4375 -2.9375 3.296875 -2.9375 C 3.03125 -2.9375 2.75 -2.9375 2.46875 -2.96875 L 2.46875 -2.71875 C 2.5625 -2.703125 2.59375 -2.640625 2.59375 -2.59375 C 2.59375 -2.484375 2.46875 -2.34375 2.390625 -2.296875 L 1.375 -1.5 L 1.375 -4.765625 L 0.34375 -4.703125 L 0.34375 -4.453125 C 0.796875 -4.453125 0.859375 -4.40625 0.859375 -4.0625 L 0.859375 -0.546875 C 0.859375 -0.25 0.78125 -0.25 0.34375 -0.25 L 0.34375 0 C 0.59375 -0.015625 0.84375 -0.03125 1.09375 -0.03125 C 1.359375 -0.03125 1.609375 -0.015625 1.859375 0 L 1.859375 -0.25 C 1.421875 -0.25 1.34375 -0.25 1.34375 -0.546875 L 1.34375 -1.203125 L 1.84375 -1.578125 L 2.59375 -0.65625 C 2.671875 -0.5625 2.75 -0.453125 2.75 -0.375 C 2.75 -0.265625 2.625 -0.25 2.5625 -0.25 L 2.5625 0 C 2.640625 0 3.140625 -0.03125 3.328125 -0.03125 C 3.53125 -0.03125 3.734375 -0.015625 3.9375 0 Z M 3.9375 0 "/>
</g>
<g id="glyph-2-30">
<path d="M 3.90625 -2.71875 L 3.90625 -2.96875 C 3.71875 -2.953125 3.578125 -2.9375 3.375 -2.9375 C 3.203125 -2.9375 2.9375 -2.9375 2.75 -2.96875 L 2.75 -2.71875 C 2.984375 -2.703125 3.03125 -2.5625 3.03125 -2.453125 C 3.03125 -2.375 3 -2.3125 2.984375 -2.234375 L 2.21875 -0.609375 L 1.375 -2.421875 C 1.34375 -2.46875 1.328125 -2.515625 1.328125 -2.5625 C 1.328125 -2.71875 1.5625 -2.71875 1.671875 -2.71875 L 1.671875 -2.96875 L 0.890625 -2.9375 C 0.6875 -2.9375 0.40625 -2.9375 0.21875 -2.96875 L 0.21875 -2.71875 C 0.59375 -2.71875 0.671875 -2.6875 0.78125 -2.46875 L 1.9375 0 C 1.875 0.140625 1.796875 0.265625 1.734375 0.40625 C 1.59375 0.734375 1.375 1.203125 0.90625 1.203125 C 0.734375 1.203125 0.671875 1.171875 0.609375 1.125 C 0.609375 1.125 0.796875 1.0625 0.796875 0.828125 C 0.796875 0.65625 0.6875 0.53125 0.515625 0.53125 C 0.328125 0.53125 0.203125 0.65625 0.203125 0.84375 C 0.203125 1.15625 0.53125 1.40625 0.90625 1.40625 C 1.484375 1.40625 1.828125 0.796875 1.921875 0.578125 L 3.25 -2.296875 C 3.4375 -2.703125 3.796875 -2.71875 3.90625 -2.71875 Z M 3.90625 -2.71875 "/>
</g>
<g id="glyph-2-31">
<path d="M 4.921875 -4.34375 C 4.921875 -4.640625 4.625 -4.84375 4.234375 -4.84375 C 4 -4.84375 3.6875 -4.765625 3.4375 -4.546875 C 3.21875 -4.796875 2.8125 -4.84375 2.546875 -4.84375 C 1.796875 -4.84375 0.859375 -4.5 0.859375 -3.71875 L 0.859375 -2.96875 L 0.265625 -2.96875 L 0.265625 -2.71875 L 0.859375 -2.71875 L 0.859375 -0.546875 C 0.859375 -0.25 0.78125 -0.25 0.34375 -0.25 L 0.34375 0 C 0.34375 0 0.828125 -0.03125 1.109375 -0.03125 C 1.375 -0.03125 1.625 -0.015625 1.890625 0 L 1.890625 -0.25 C 1.4375 -0.25 1.375 -0.25 1.375 -0.546875 L 1.375 -2.71875 L 3.078125 -2.71875 L 3.078125 -0.546875 C 3.078125 -0.25 3 -0.25 2.5625 -0.25 L 2.5625 0 C 2.59375 0 3.0625 -0.03125 3.34375 -0.03125 L 4.234375 0 L 4.234375 -0.25 L 4.09375 -0.25 C 3.59375 -0.25 3.59375 -0.328125 3.59375 -0.5625 L 3.59375 -2.71875 L 4.453125 -2.71875 L 4.453125 -2.96875 L 3.5625 -2.96875 L 3.5625 -3.734375 C 3.5625 -4.359375 3.921875 -4.640625 4.234375 -4.640625 C 4.296875 -4.640625 4.359375 -4.640625 4.4375 -4.609375 C 4.34375 -4.5625 4.28125 -4.453125 4.28125 -4.34375 C 4.28125 -4.15625 4.40625 -4.015625 4.59375 -4.015625 C 4.78125 -4.015625 4.921875 -4.15625 4.921875 -4.34375 Z M 3.109375 -4.53125 C 3.03125 -4.515625 2.921875 -4.421875 2.921875 -4.234375 C 2.921875 -4.140625 2.953125 -4.03125 3.09375 -3.953125 C 3.078125 -3.890625 3.078125 -3.796875 3.078125 -3.734375 L 3.078125 -2.96875 L 1.34375 -2.96875 L 1.34375 -3.71875 C 1.34375 -4.375 2.015625 -4.640625 2.515625 -4.640625 C 2.578125 -4.640625 2.875 -4.640625 3.109375 -4.53125 Z M 3.109375 -4.53125 "/>
</g>
<g id="glyph-2-32">
<path d="M 4.015625 -1.484375 C 4.015625 -2.328125 3.3125 -3.03125 2.4375 -3.03125 C 2.046875 -3.03125 1.65625 -2.890625 1.375 -2.609375 L 1.375 -3.03125 L 0.34375 -2.953125 L 0.34375 -2.703125 C 0.8125 -2.703125 0.859375 -2.671875 0.859375 -2.390625 L 0.859375 0.796875 C 0.859375 1.09375 0.78125 1.09375 0.34375 1.09375 L 0.34375 1.328125 C 0.34375 1.328125 0.828125 1.3125 1.125 1.3125 C 1.375 1.3125 1.84375 1.328125 1.90625 1.328125 L 1.90625 1.09375 C 1.46875 1.09375 1.390625 1.09375 1.390625 0.796875 L 1.390625 -0.328125 C 1.4375 -0.296875 1.75 0.0625 2.328125 0.0625 C 3.234375 0.0625 4.015625 -0.609375 4.015625 -1.484375 Z M 3.390625 -1.484375 C 3.390625 -0.703125 2.875 -0.125 2.296875 -0.125 C 1.6875 -0.125 1.421875 -0.65625 1.390625 -0.6875 L 1.390625 -2.296875 C 1.609375 -2.640625 2 -2.8125 2.359375 -2.8125 C 2.9375 -2.8125 3.390625 -2.203125 3.390625 -1.484375 Z M 3.390625 -1.484375 "/>
</g>
<g id="glyph-2-33">
<path d="M 2.578125 1.625 C 2.578125 1.59375 2.5625 1.578125 2.515625 1.53125 C 1.59375 0.703125 1.265625 -0.46875 1.265625 -1.71875 C 1.265625 -3.578125 1.96875 -4.484375 2.53125 -4.984375 C 2.5625 -5.015625 2.578125 -5.046875 2.578125 -5.078125 C 2.578125 -5.15625 2.5 -5.15625 2.4375 -5.15625 C 1.140625 -4.234375 0.796875 -2.78125 0.796875 -1.71875 C 0.796875 -0.75 1.078125 0.75 2.4375 1.71875 C 2.5 1.71875 2.578125 1.71875 2.578125 1.625 Z M 2.578125 1.625 "/>
</g>
<g id="glyph-2-34">
<path d="M 5.546875 -2.328125 C 5.546875 -3.703125 4.40625 -4.828125 3.015625 -4.828125 C 1.609375 -4.828125 0.484375 -3.703125 0.484375 -2.328125 C 0.484375 -0.96875 1.609375 0.140625 3.015625 0.140625 C 4.421875 0.140625 5.546875 -0.96875 5.546875 -2.328125 Z M 4.8125 -2.4375 C 4.8125 -0.75 3.8125 -0.09375 3.015625 -0.09375 C 2.203125 -0.09375 1.21875 -0.75 1.21875 -2.4375 C 1.21875 -4.03125 2.234375 -4.609375 3.015625 -4.609375 C 3.796875 -4.609375 4.8125 -4.03125 4.8125 -2.4375 Z M 4.8125 -2.4375 "/>
</g>
<g id="glyph-2-35">
<path d="M 3.46875 -1.25 L 3.234375 -1.25 C 3.21875 -1.09375 3.15625 -0.6875 3.0625 -0.625 C 3 -0.578125 2.46875 -0.578125 2.375 -0.578125 L 1.109375 -0.578125 C 1.828125 -1.21875 2.078125 -1.421875 2.484375 -1.734375 C 3 -2.140625 3.46875 -2.578125 3.46875 -3.21875 C 3.46875 -4.0625 2.75 -4.5625 1.859375 -4.5625 C 1.015625 -4.5625 0.4375 -3.96875 0.4375 -3.328125 C 0.4375 -2.984375 0.734375 -2.953125 0.796875 -2.953125 C 0.96875 -2.953125 1.15625 -3.0625 1.15625 -3.3125 C 1.15625 -3.4375 1.109375 -3.671875 0.75 -3.671875 C 0.96875 -4.171875 1.4375 -4.3125 1.765625 -4.3125 C 2.453125 -4.3125 2.8125 -3.78125 2.8125 -3.21875 C 2.8125 -2.625 2.375 -2.15625 2.15625 -1.90625 L 0.5 -0.265625 C 0.4375 -0.203125 0.4375 -0.1875 0.4375 0 L 3.265625 0 Z M 3.46875 -1.25 "/>
</g>
<g id="glyph-2-36">
<path d="M 3.53125 -1.40625 C 3.53125 -2.28125 2.84375 -2.921875 2.03125 -2.921875 C 1.484375 -2.921875 1.1875 -2.5625 1.03125 -2.25 C 1.03125 -2.8125 1.078125 -3.328125 1.34375 -3.734375 C 1.578125 -4.109375 1.953125 -4.359375 2.390625 -4.359375 C 2.59375 -4.359375 2.859375 -4.3125 3 -4.125 C 2.828125 -4.109375 2.6875 -4 2.6875 -3.796875 C 2.6875 -3.625 2.8125 -3.46875 3.015625 -3.46875 C 3.21875 -3.46875 3.34375 -3.609375 3.34375 -3.8125 C 3.34375 -4.203125 3.046875 -4.5625 2.375 -4.5625 C 1.375 -4.5625 0.375 -3.65625 0.375 -2.171875 C 0.375 -0.40625 1.203125 0.140625 1.96875 0.140625 C 2.8125 0.140625 3.53125 -0.5 3.53125 -1.40625 Z M 2.875 -1.40625 C 2.875 -1.015625 2.875 -0.71875 2.6875 -0.453125 C 2.515625 -0.21875 2.296875 -0.078125 1.96875 -0.078125 C 1.625 -0.078125 1.359375 -0.28125 1.203125 -0.578125 C 1.109375 -0.796875 1.046875 -1.140625 1.046875 -1.546875 C 1.046875 -2.21875 1.453125 -2.734375 2 -2.734375 C 2.3125 -2.734375 2.53125 -2.609375 2.703125 -2.34375 C 2.859375 -2.09375 2.875 -1.796875 2.875 -1.40625 Z M 2.875 -1.40625 "/>
</g>
<g id="glyph-2-37">
<path d="M 2.265625 -1.71875 C 2.265625 -2.6875 1.984375 -4.1875 0.625 -5.15625 C 0.578125 -5.15625 0.484375 -5.15625 0.484375 -5.078125 C 0.484375 -5.046875 0.515625 -5.015625 0.546875 -4.96875 C 1.140625 -4.421875 1.796875 -3.5 1.796875 -1.71875 C 1.796875 -0.28125 1.359375 0.796875 0.609375 1.46875 C 0.5 1.59375 0.484375 1.59375 0.484375 1.625 C 0.484375 1.65625 0.515625 1.71875 0.578125 1.71875 C 0.65625 1.71875 1.3125 1.265625 1.765625 0.40625 C 2.0625 -0.171875 2.265625 -0.921875 2.265625 -1.71875 Z M 2.265625 -1.71875 "/>
</g>
<g id="glyph-3-0">
<path d="M 3.71875 -0.671875 C 3.71875 -0.71875 3.625 -0.828125 3.5625 -0.828125 C 3.53125 -0.828125 3.5 -0.8125 3.453125 -0.75 C 3.03125 -0.25 2.4375 -0.125 2.09375 -0.125 C 1.65625 -0.125 1.453125 -0.5 1.453125 -0.9375 C 1.453125 -1.140625 1.5 -1.359375 1.546875 -1.5625 L 1.96875 -1.5625 C 2.265625 -1.5625 3.625 -1.5625 3.625 -2.421875 C 3.625 -2.796875 3.265625 -3.03125 2.796875 -3.03125 C 2.015625 -3.03125 0.921875 -2.40625 0.921875 -1.203125 C 0.921875 -0.484375 1.359375 0.0625 2.09375 0.0625 C 3.1875 0.0625 3.71875 -0.578125 3.71875 -0.671875 Z M 3.296875 -2.4375 C 3.296875 -1.765625 2.1875 -1.765625 1.921875 -1.765625 L 1.609375 -1.765625 C 1.90625 -2.828125 2.703125 -2.84375 2.796875 -2.84375 C 3.078125 -2.84375 3.296875 -2.6875 3.296875 -2.4375 Z M 3.296875 -2.4375 "/>
</g>
<g id="glyph-3-1">
<path d="M 3.859375 -0.984375 C 3.859375 -1.078125 3.765625 -1.078125 3.71875 -1.078125 C 3.609375 -1.078125 3.59375 -1.0625 3.546875 -0.921875 C 3.40625 -0.46875 3.03125 -0.125 2.6875 -0.125 C 2.46875 -0.125 2.296875 -0.28125 2.296875 -0.578125 C 2.296875 -0.703125 2.34375 -0.890625 2.40625 -1.15625 L 2.640625 -2.109375 C 2.796875 -2.703125 3.078125 -2.84375 3.28125 -2.84375 C 3.328125 -2.84375 3.5 -2.84375 3.625 -2.71875 C 3.40625 -2.625 3.40625 -2.453125 3.40625 -2.40625 C 3.40625 -2.21875 3.5625 -2.171875 3.65625 -2.171875 C 3.78125 -2.171875 4 -2.28125 4 -2.5625 C 4 -2.984375 3.46875 -3.03125 3.296875 -3.03125 C 2.921875 -3.03125 2.671875 -2.796875 2.546875 -2.609375 C 2.375 -2.90625 2.09375 -3.03125 1.796875 -3.03125 C 1.03125 -3.03125 0.609375 -2.1875 0.609375 -1.984375 C 0.609375 -1.890625 0.6875 -1.890625 0.75 -1.890625 C 0.84375 -1.890625 0.875 -1.890625 0.890625 -1.984375 C 1.09375 -2.640625 1.546875 -2.84375 1.78125 -2.84375 C 2.015625 -2.84375 2.171875 -2.671875 2.171875 -2.40625 C 2.171875 -2.25 2.09375 -1.953125 2.03125 -1.734375 L 1.796875 -0.796875 C 1.703125 -0.390625 1.453125 -0.125 1.171875 -0.125 C 1.140625 -0.125 0.96875 -0.125 0.84375 -0.234375 C 1.0625 -0.328125 1.0625 -0.515625 1.0625 -0.546875 C 1.0625 -0.75 0.890625 -0.78125 0.8125 -0.78125 C 0.625 -0.78125 0.46875 -0.625 0.46875 -0.40625 C 0.46875 -0.078125 0.828125 0.0625 1.171875 0.0625 C 1.578125 0.0625 1.828125 -0.25 1.90625 -0.359375 C 2.0625 -0.09375 2.328125 0.0625 2.671875 0.0625 C 3.421875 0.0625 3.859375 -0.765625 3.859375 -0.984375 Z M 3.859375 -0.984375 "/>
</g>
<g id="glyph-3-2">
<path d="M 3.984375 -1.90625 C 3.984375 -2.59375 3.546875 -3.03125 3.015625 -3.03125 C 2.5625 -3.03125 2.203125 -2.703125 2.0625 -2.5625 C 1.953125 -2.9375 1.609375 -3.03125 1.40625 -3.03125 C 1.109375 -3.03125 0.96875 -2.84375 0.859375 -2.671875 C 0.71875 -2.4375 0.609375 -2.015625 0.609375 -1.984375 C 0.609375 -1.890625 0.6875 -1.890625 0.75 -1.890625 C 0.875 -1.890625 0.875 -1.890625 0.921875 -2.09375 C 1.046875 -2.5625 1.171875 -2.84375 1.390625 -2.84375 C 1.609375 -2.84375 1.609375 -2.59375 1.609375 -2.515625 C 1.609375 -2.4375 1.609375 -2.390625 1.578125 -2.28125 L 0.796875 0.84375 C 0.75 1.046875 0.703125 1.09375 0.453125 1.09375 C 0.359375 1.09375 0.28125 1.09375 0.28125 1.234375 C 0.28125 1.296875 0.3125 1.328125 0.375 1.328125 C 0.546875 1.328125 0.765625 1.3125 0.953125 1.3125 C 1.171875 1.3125 1.4375 1.328125 1.65625 1.328125 C 1.6875 1.328125 1.78125 1.328125 1.78125 1.1875 C 1.78125 1.09375 1.71875 1.09375 1.59375 1.09375 C 1.46875 1.09375 1.28125 1.09375 1.28125 1 C 1.28125 0.96875 1.3125 0.796875 1.34375 0.703125 L 1.59375 -0.3125 C 1.6875 -0.171875 1.90625 0.0625 2.28125 0.0625 C 3.125 0.0625 3.984375 -0.921875 3.984375 -1.90625 Z M 3.46875 -2.1875 C 3.46875 -1.84375 3.265625 -1.09375 3.109375 -0.796875 C 2.8125 -0.25 2.46875 -0.125 2.28125 -0.125 C 1.8125 -0.125 1.71875 -0.6875 1.71875 -0.796875 C 1.71875 -0.8125 1.71875 -0.828125 1.734375 -0.890625 L 2.015625 -2.03125 C 2.078125 -2.28125 2.5625 -2.84375 2.984375 -2.84375 C 3.296875 -2.84375 3.46875 -2.546875 3.46875 -2.1875 Z M 3.46875 -2.1875 "/>
</g>
<g id="glyph-3-3">
<path d="M 3.84375 -2.5625 C 3.84375 -2.90625 3.421875 -3.03125 3.015625 -3.03125 C 2.828125 -3.03125 2.46875 -3.015625 2.0625 -2.5625 C 1.953125 -2.9375 1.609375 -3.03125 1.40625 -3.03125 C 1.109375 -3.03125 0.96875 -2.84375 0.859375 -2.671875 C 0.71875 -2.4375 0.609375 -2.015625 0.609375 -1.984375 C 0.609375 -1.890625 0.6875 -1.890625 0.75 -1.890625 C 0.875 -1.890625 0.875 -1.890625 0.921875 -2.09375 C 1.046875 -2.5625 1.171875 -2.84375 1.390625 -2.84375 C 1.609375 -2.84375 1.609375 -2.59375 1.609375 -2.515625 C 1.609375 -2.375 1.515625 -2.03125 1.453125 -1.78125 L 1.265625 -1.046875 C 1.25 -0.9375 1.171875 -0.6875 1.140625 -0.578125 C 1.109375 -0.421875 1.046875 -0.1875 1.046875 -0.140625 C 1.046875 0.015625 1.15625 0.0625 1.265625 0.0625 C 1.421875 0.0625 1.5 -0.046875 1.53125 -0.09375 C 1.546875 -0.140625 1.609375 -0.390625 1.65625 -0.53125 L 1.828125 -1.28125 C 1.875 -1.4375 1.90625 -1.578125 1.953125 -1.71875 C 1.984375 -1.890625 2.0625 -2.1875 2.359375 -2.53125 C 2.5 -2.6875 2.703125 -2.84375 3 -2.84375 C 3.078125 -2.84375 3.3125 -2.828125 3.46875 -2.71875 C 3.328125 -2.65625 3.265625 -2.53125 3.265625 -2.40625 C 3.265625 -2.21875 3.421875 -2.171875 3.5 -2.171875 C 3.640625 -2.171875 3.84375 -2.28125 3.84375 -2.5625 Z M 3.84375 -2.5625 "/>
</g>
<g id="glyph-3-4">
<path d="M 2.65625 -0.984375 C 2.65625 -1.078125 2.5625 -1.078125 2.515625 -1.078125 C 2.390625 -1.078125 2.375 -1.046875 2.34375 -0.921875 C 2.25 -0.59375 2.03125 -0.125 1.671875 -0.125 C 1.515625 -0.125 1.515625 -0.28125 1.515625 -0.359375 C 1.515625 -0.515625 1.625 -0.8125 1.71875 -1.03125 L 2.171875 -2.234375 C 2.21875 -2.34375 2.21875 -2.359375 2.21875 -2.453125 C 2.21875 -2.765625 1.96875 -3.03125 1.59375 -3.03125 C 0.921875 -3.03125 0.609375 -2.109375 0.609375 -1.984375 C 0.609375 -1.890625 0.6875 -1.890625 0.75 -1.890625 C 0.828125 -1.890625 0.875 -1.890625 0.890625 -1.984375 C 1.125 -2.78125 1.453125 -2.84375 1.578125 -2.84375 C 1.65625 -2.84375 1.75 -2.8125 1.75 -2.609375 C 1.75 -2.453125 1.6875 -2.3125 1.640625 -2.171875 L 1.453125 -1.703125 L 1.203125 -1.0625 C 1.140625 -0.875 1.046875 -0.625 1.046875 -0.515625 C 1.046875 -0.1875 1.296875 0.0625 1.65625 0.0625 C 2.34375 0.0625 2.65625 -0.875 2.65625 -0.984375 Z M 2.6875 -4.1875 C 2.6875 -4.375 2.546875 -4.515625 2.359375 -4.515625 C 2.109375 -4.515625 1.890625 -4.265625 1.890625 -4.046875 C 1.890625 -3.875 2.015625 -3.71875 2.21875 -3.71875 C 2.46875 -3.71875 2.6875 -3.953125 2.6875 -4.1875 Z M 2.6875 -4.1875 "/>
</g>
<g id="glyph-3-5">
<path d="M 4.671875 -0.984375 C 4.671875 -1.078125 4.578125 -1.078125 4.53125 -1.078125 C 4.40625 -1.078125 4.40625 -1.046875 4.359375 -0.921875 C 4.25 -0.5 4 -0.125 3.703125 -0.125 C 3.609375 -0.125 3.53125 -0.171875 3.53125 -0.359375 C 3.53125 -0.515625 3.59375 -0.65625 3.640625 -0.8125 C 3.765625 -1.140625 4.0625 -1.890625 4.0625 -2.265625 C 4.0625 -2.8125 3.6875 -3.03125 3.203125 -3.03125 C 2.671875 -3.03125 2.296875 -2.703125 2.09375 -2.453125 C 2.046875 -2.859375 1.6875 -3.03125 1.40625 -3.03125 C 1.109375 -3.03125 0.96875 -2.84375 0.859375 -2.671875 C 0.71875 -2.4375 0.609375 -2.015625 0.609375 -1.984375 C 0.609375 -1.890625 0.6875 -1.890625 0.75 -1.890625 C 0.875 -1.890625 0.875 -1.890625 0.921875 -2.09375 C 1.046875 -2.5625 1.171875 -2.84375 1.390625 -2.84375 C 1.609375 -2.84375 1.609375 -2.59375 1.609375 -2.515625 C 1.609375 -2.375 1.515625 -2.03125 1.453125 -1.78125 L 1.265625 -1.046875 C 1.25 -0.9375 1.171875 -0.6875 1.140625 -0.578125 C 1.109375 -0.421875 1.046875 -0.1875 1.046875 -0.140625 C 1.046875 0.015625 1.15625 0.0625 1.265625 0.0625 C 1.5 0.0625 1.546875 -0.140625 1.578125 -0.234375 L 1.734375 -0.859375 C 1.75 -0.953125 1.828125 -1.21875 1.84375 -1.3125 C 1.859375 -1.390625 1.953125 -1.734375 1.953125 -1.78125 C 1.96875 -1.828125 2.171875 -2.28125 2.46875 -2.53125 C 2.671875 -2.71875 2.90625 -2.84375 3.1875 -2.84375 C 3.5 -2.84375 3.578125 -2.59375 3.578125 -2.375 C 3.578125 -1.96875 3.25 -1.140625 3.140625 -0.8125 C 3.0625 -0.640625 3.0625 -0.59375 3.0625 -0.515625 C 3.0625 -0.140625 3.359375 0.0625 3.671875 0.0625 C 4.359375 0.0625 4.671875 -0.875 4.671875 -0.984375 Z M 4.671875 -0.984375 "/>
</g>
<g id="glyph-3-6">
<path d="M 3.71875 -0.671875 C 3.71875 -0.71875 3.625 -0.828125 3.5625 -0.828125 C 3.53125 -0.828125 3.5 -0.8125 3.453125 -0.75 C 3.03125 -0.25 2.4375 -0.125 2.09375 -0.125 C 1.75 -0.125 1.4375 -0.328125 1.4375 -0.875 C 1.4375 -1.203125 1.59375 -1.9375 1.90625 -2.328125 C 2.171875 -2.6875 2.515625 -2.84375 2.8125 -2.84375 C 2.921875 -2.84375 3.21875 -2.8125 3.328125 -2.59375 C 3.140625 -2.53125 3.0625 -2.375 3.0625 -2.25 C 3.0625 -2.140625 3.140625 -2.03125 3.3125 -2.03125 C 3.4375 -2.03125 3.65625 -2.109375 3.65625 -2.4375 C 3.65625 -2.875 3.171875 -3.03125 2.796875 -3.03125 C 1.828125 -3.03125 0.890625 -2.09375 0.890625 -1.109375 C 0.890625 -0.46875 1.328125 0.0625 2.09375 0.0625 C 3.203125 0.0625 3.71875 -0.578125 3.71875 -0.671875 Z M 3.71875 -0.671875 "/>
</g>
</g>
<clipPath id="clip-0">
<path clip-rule="nonzero" d="M 2.492188 0 L 186 0 L 186 61.148438 L 2.492188 61.148438 Z M 2.492188 0 "/>
</clipPath>
<clipPath id="clip-1">
<path clip-rule="nonzero" d="M 181 0 L 363.613281 0 L 363.613281 61.148438 L 181 61.148438 Z M 181 0 "/>
</clipPath>
</defs>
<path fill-rule="nonzero" fill="rgb(95.999146%, 95.999146%, 95.999146%)" fill-opacity="1" d="M 172.035156 6.15625 L 9.753906 6.15625 C 8.671875 6.15625 7.792969 7.035156 7.792969 8.121094 L 7.792969 53.027344 C 7.792969 54.109375 8.671875 54.988281 9.753906 54.988281 L 172.035156 54.988281 C 173.121094 54.988281 174 54.109375 174 53.027344 L 174 8.121094 C 174 7.035156 173.121094 6.15625 172.035156 6.15625 Z M 172.035156 6.15625 "/>
<g clip-path="url(#clip-0)">
<path fill="none" stroke-width="0.79701" stroke-linecap="butt" stroke-linejoin="miter" stroke="rgb(54.432678%, 54.432678%, 54.432678%)" stroke-opacity="1" stroke-miterlimit="10" d="M 167.110705 24.784208 L 2.39002 24.784208 C 1.291723 24.784208 0.399605 23.89209 0.399605 22.789829 L 0.399605 -22.791458 C 0.399605 -23.889755 1.291723 -24.781873 2.39002 -24.781873 L 167.110705 -24.781873 C 168.212966 -24.781873 169.105084 -23.889755 169.105084 -22.791458 L 169.105084 22.789829 C 169.105084 23.89209 168.212966 24.784208 167.110705 24.784208 Z M 167.110705 24.784208 " transform="matrix(0.98519, 0, 0, -0.98519, 7.399281, 30.573416)"/>
</g>
<g fill="rgb(0%, 0%, 0%)" fill-opacity="1">
<use xlink:href="#glyph-0-0" x="36.338266" y="17.691065"/>
<use xlink:href="#glyph-0-1" x="44.346819" y="17.691065"/>
<use xlink:href="#glyph-0-2" x="49.14347" y="17.691065"/>
<use xlink:href="#glyph-0-3" x="53.266117" y="17.691065"/>
<use xlink:href="#glyph-0-4" x="57.911713" y="17.691065"/>
<use xlink:href="#glyph-0-5" x="62.223399" y="17.691065"/>
<use xlink:href="#glyph-0-6" x="65.127008" y="17.691065"/>
</g>
<g fill="rgb(0%, 0%, 0%)" fill-opacity="1">
<use xlink:href="#glyph-0-1" x="71.225733" y="17.691065"/>
</g>
<g fill="rgb(0%, 0%, 0%)" fill-opacity="1">
<use xlink:href="#glyph-1-0" x="79.047259" y="17.691065"/>
<use xlink:href="#glyph-1-1" x="82.578053" y="17.691065"/>
<use xlink:href="#glyph-1-2" x="89.135244" y="17.691065"/>
<use xlink:href="#glyph-1-3" x="94.179236" y="17.691065"/>
<use xlink:href="#glyph-1-4" x="98.718829" y="17.691065"/>
<use xlink:href="#glyph-1-5" x="102.249624" y="17.691065"/>
</g>
<g fill="rgb(0%, 0%, 0%)" fill-opacity="1">
<use xlink:href="#glyph-1-6" x="107.792715" y="17.691065"/>
<use xlink:href="#glyph-1-7" x="112.836708" y="17.691065"/>
<use xlink:href="#glyph-1-8" x="116.38782" y="17.691065"/>
<use xlink:href="#glyph-1-9" x="120.426547" y="17.691065"/>
<use xlink:href="#glyph-1-10" x="124.461741" y="17.691065"/>
<use xlink:href="#glyph-1-11" x="126.983737" y="17.691065"/>
<use xlink:href="#glyph-1-8" x="130.564883" y="17.691065"/>
<use xlink:href="#glyph-1-12" x="134.603611" y="17.691065"/>
<use xlink:href="#glyph-1-13" x="137.125607" y="17.691065"/>
<use xlink:href="#glyph-1-14" x="141.916958" y="17.691065"/>
</g>
<g fill="rgb(0%, 0%, 0%)" fill-opacity="1">
<use xlink:href="#glyph-2-0" x="40.772609" y="28.487768"/>
<use xlink:href="#glyph-2-1" x="44.471697" y="28.487768"/>
<use xlink:href="#glyph-2-2" x="49.747571" y="28.487768"/>
<use xlink:href="#glyph-2-3" x="51.969497" y="28.487768"/>
<use xlink:href="#glyph-2-4" x="55.881572" y="28.487768"/>
</g>
<g fill="rgb(0%, 0%, 0%)" fill-opacity="1">
<use xlink:href="#glyph-2-5" x="60.003885" y="28.487768"/>
</g>
<g fill="rgb(0%, 0%, 0%)" fill-opacity="1">
<use xlink:href="#glyph-2-6" x="66.100786" y="28.487768"/>
<use xlink:href="#glyph-2-7" x="69.210384" y="28.487768"/>
<use xlink:href="#glyph-2-8" x="72.699921" y="28.487768"/>
<use xlink:href="#glyph-2-2" x="79.147906" y="28.487768"/>
<use xlink:href="#glyph-2-9" x="81.369832" y="28.487768"/>
<use xlink:href="#glyph-2-6" x="84.014296" y="28.487768"/>
<use xlink:href="#glyph-2-5" x="87.123894" y="28.487768"/>
<use xlink:href="#glyph-2-10" x="90.190895" y="28.487768"/>
<use xlink:href="#glyph-2-11" x="93.257895" y="28.487768"/>
<use xlink:href="#glyph-2-12" x="97.593194" y="28.487768"/>
<use xlink:href="#glyph-2-5" x="101.082732" y="28.487768"/>
<use xlink:href="#glyph-2-11" x="104.149733" y="28.487768"/>
<use xlink:href="#glyph-2-10" x="108.485032" y="28.487768"/>
<use xlink:href="#glyph-2-7" x="111.552033" y="28.487768"/>
<use xlink:href="#glyph-2-13" x="115.04157" y="28.487768"/>
</g>
<g fill="rgb(0%, 0%, 0%)" fill-opacity="1">
<use xlink:href="#glyph-2-2" x="122.399899" y="28.487768"/>
<use xlink:href="#glyph-2-14" x="124.621825" y="28.487768"/>
</g>
<g fill="rgb(0%, 0%, 0%)" fill-opacity="1">
<use xlink:href="#glyph-2-5" x="128.744138" y="28.487768"/>
<use xlink:href="#glyph-2-7" x="131.811139" y="28.487768"/>
</g>
<g fill="rgb(0%, 0%, 0%)" fill-opacity="1">
<use xlink:href="#glyph-2-10" x="135.307547" y="28.487768"/>
<use xlink:href="#glyph-2-9" x="138.374548" y="28.487768"/>
</g>
<g fill="rgb(0%, 0%, 0%)" fill-opacity="1">
<use xlink:href="#glyph-2-15" x="37.087996" y="39.28447"/>
<use xlink:href="#glyph-2-2" x="41.211683" y="39.28447"/>
<use xlink:href="#glyph-2-7" x="43.43361" y="39.28447"/>
<use xlink:href="#glyph-2-16" x="46.923148" y="39.28447"/>
<use xlink:href="#glyph-2-6" x="52.526058" y="39.28447"/>
<use xlink:href="#glyph-2-17" x="55.635656" y="39.28447"/>
</g>
<g fill="rgb(0%, 0%, 0%)" fill-opacity="1">
<use xlink:href="#glyph-2-18" x="60.887482" y="39.28447"/>
<use xlink:href="#glyph-2-19" x="64.799557" y="39.28447"/>
<use xlink:href="#glyph-2-20" x="68.711632" y="39.28447"/>
<use xlink:href="#glyph-2-21" x="72.623707" y="39.28447"/>
<use xlink:href="#glyph-2-22" x="76.535782" y="39.28447"/>
</g>
<g fill="rgb(0%, 0%, 0%)" fill-opacity="1">
<use xlink:href="#glyph-2-8" x="83.470886" y="39.28447"/>
<use xlink:href="#glyph-2-2" x="89.91887" y="39.28447"/>
<use xlink:href="#glyph-2-14" x="92.140797" y="39.28447"/>
</g>
<g fill="rgb(0%, 0%, 0%)" fill-opacity="1">
<use xlink:href="#glyph-2-11" x="96.26311" y="39.28447"/>
<use xlink:href="#glyph-2-5" x="100.598409" y="39.28447"/>
<use xlink:href="#glyph-2-7" x="103.665409" y="39.28447"/>
<use xlink:href="#glyph-2-6" x="107.154947" y="39.28447"/>
<use xlink:href="#glyph-2-17" x="110.264545" y="39.28447"/>
</g>
<g fill="rgb(0%, 0%, 0%)" fill-opacity="1">
<use xlink:href="#glyph-2-10" x="115.516372" y="39.28447"/>
<use xlink:href="#glyph-2-7" x="118.583372" y="39.28447"/>
<use xlink:href="#glyph-2-12" x="122.07291" y="39.28447"/>
<use xlink:href="#glyph-2-23" x="125.562448" y="39.28447"/>
<use xlink:href="#glyph-2-10" x="129.474523" y="39.28447"/>
<use xlink:href="#glyph-2-13" x="132.541524" y="39.28447"/>
<use xlink:href="#glyph-2-7" x="136.876822" y="39.28447"/>
<use xlink:href="#glyph-2-13" x="140.36636" y="39.28447"/>
</g>
<g fill="rgb(0%, 0%, 0%)" fill-opacity="1">
<use xlink:href="#glyph-2-24" x="39.945049" y="50.081173"/>
<use xlink:href="#glyph-2-14" x="43.857124" y="50.081173"/>
<use xlink:href="#glyph-2-13" x="48.192423" y="50.081173"/>
</g>
<g fill="rgb(0%, 0%, 0%)" fill-opacity="1">
<use xlink:href="#glyph-2-5" x="55.550751" y="50.081173"/>
<use xlink:href="#glyph-2-10" x="58.617752" y="50.081173"/>
<use xlink:href="#glyph-2-24" x="61.684752" y="50.081173"/>
<use xlink:href="#glyph-2-14" x="65.596827" y="50.081173"/>
<use xlink:href="#glyph-2-6" x="69.932126" y="50.081173"/>
<use xlink:href="#glyph-2-12" x="73.041724" y="50.081173"/>
<use xlink:href="#glyph-2-10" x="76.531262" y="50.081173"/>
<use xlink:href="#glyph-2-2" x="79.598263" y="50.081173"/>
<use xlink:href="#glyph-2-25" x="81.820189" y="50.081173"/>
</g>
<g fill="rgb(0%, 0%, 0%)" fill-opacity="1">
<use xlink:href="#glyph-2-7" x="86.368474" y="50.081173"/>
<use xlink:href="#glyph-2-13" x="89.858012" y="50.081173"/>
</g>
<g fill="rgb(0%, 0%, 0%)" fill-opacity="1">
<use xlink:href="#glyph-2-15" x="97.223211" y="50.081173"/>
</g>
<g fill="rgb(0%, 0%, 0%)" fill-opacity="1">
<use xlink:href="#glyph-2-7" x="101.133912" y="50.081173"/>
<use xlink:href="#glyph-2-10" x="104.62345" y="50.081173"/>
<use xlink:href="#glyph-2-25" x="107.69045" y="50.081173"/>
<use xlink:href="#glyph-2-24" x="112.025749" y="50.081173"/>
<use xlink:href="#glyph-2-5" x="115.937824" y="50.081173"/>
<use xlink:href="#glyph-2-2" x="119.004825" y="50.081173"/>
<use xlink:href="#glyph-2-8" x="121.226752" y="50.081173"/>
<use xlink:href="#glyph-2-26" x="127.674736" y="50.081173"/>
</g>
<g fill="rgb(0%, 0%, 0%)" fill-opacity="1">
<use xlink:href="#glyph-2-26" x="131.167709" y="50.081173"/>
</g>
<g fill="rgb(0%, 0%, 0%)" fill-opacity="1">
<use xlink:href="#glyph-2-26" x="134.653811" y="50.081173"/>
</g>
<g fill="rgb(0%, 0%, 0%)" fill-opacity="1">
<use xlink:href="#glyph-2-27" x="138.146784" y="50.081173"/>
</g>
<path fill-rule="nonzero" fill="rgb(98.704529%, 94.37561%, 95.080566%)" fill-opacity="1" d="M 356.355469 5.300781 L 194.074219 5.300781 C 192.988281 5.300781 192.109375 6.179688 192.109375 7.261719 L 192.109375 53.882812 C 192.109375 54.96875 192.988281 55.847656 194.074219 55.847656 L 356.355469 55.847656 C 357.4375 55.847656 358.316406 54.96875 358.316406 53.882812 L 358.316406 7.261719 C 358.316406 6.179688 357.4375 5.300781 356.355469 5.300781 Z M 356.355469 5.300781 "/>
<g clip-path="url(#clip-1)">
<path fill="none" stroke-width="0.79701" stroke-linecap="butt" stroke-linejoin="miter" stroke="rgb(78.431702%, 6.27594%, 18.03894%)" stroke-opacity="1" stroke-miterlimit="10" d="M 354.201747 25.652537 L 189.481062 25.652537 C 188.3788 25.652537 187.486682 24.760419 187.486682 23.662122 L 187.486682 -23.659787 C 187.486682 -24.762048 188.3788 -25.654166 189.481062 -25.654166 L 354.201747 -25.654166 C 355.300043 -25.654166 356.192161 -24.762048 356.192161 -23.659787 L 356.192161 23.662122 C 356.192161 24.760419 355.300043 25.652537 354.201747 25.652537 Z M 354.201747 25.652537 " transform="matrix(0.98519, 0, 0, -0.98519, 7.399281, 30.573416)"/>
</g>
<g fill="rgb(0%, 0%, 0%)" fill-opacity="1">
<use xlink:href="#glyph-0-7" x="226.632733" y="16.832964"/>
<use xlink:href="#glyph-0-8" x="232.028303" y="16.832964"/>
<use xlink:href="#glyph-0-2" x="237.835519" y="16.832964"/>
<use xlink:href="#glyph-0-9" x="241.958166" y="16.832964"/>
<use xlink:href="#glyph-0-5" x="246.023394" y="16.832964"/>
<use xlink:href="#glyph-0-10" x="248.927003" y="16.832964"/>
<use xlink:href="#glyph-0-11" x="252.121237" y="16.832964"/>
</g>
<g fill="rgb(0%, 0%, 0%)" fill-opacity="1">
<use xlink:href="#glyph-1-0" x="260.663182" y="16.832964"/>
<use xlink:href="#glyph-1-1" x="264.193977" y="16.832964"/>
<use xlink:href="#glyph-1-2" x="270.751167" y="16.832964"/>
</g>
<g fill="rgb(0%, 0%, 0%)" fill-opacity="1">
<use xlink:href="#glyph-1-13" x="275.538985" y="16.832964"/>
</g>
<g fill="rgb(0%, 0%, 0%)" fill-opacity="1">
<use xlink:href="#glyph-1-4" x="283.360265" y="16.832964"/>
<use xlink:href="#glyph-1-2" x="286.891059" y="16.832964"/>
<use xlink:href="#glyph-1-10" x="291.935052" y="16.832964"/>
<use xlink:href="#glyph-1-11" x="294.457048" y="16.832964"/>
<use xlink:href="#glyph-1-5" x="298.038194" y="16.832964"/>
</g>
<g fill="rgb(0%, 0%, 0%)" fill-opacity="1">
<use xlink:href="#glyph-1-2" x="303.590119" y="16.832964"/>
<use xlink:href="#glyph-1-8" x="308.634112" y="16.832964"/>
<use xlink:href="#glyph-1-7" x="312.672839" y="16.832964"/>
<use xlink:href="#glyph-1-8" x="316.223951" y="16.832964"/>
</g>
<g fill="rgb(0%, 0%, 0%)" fill-opacity="1">
<use xlink:href="#glyph-1-14" x="320.253845" y="16.832964"/>
</g>
<g fill="rgb(0%, 0%, 0%)" fill-opacity="1">
<use xlink:href="#glyph-2-0" x="203.067962" y="27.629667"/>
<use xlink:href="#glyph-2-26" x="206.767051" y="27.629667"/>
</g>
<g fill="rgb(0%, 0%, 0%)" fill-opacity="1">
<use xlink:href="#glyph-2-26" x="210.260024" y="27.629667"/>
</g>
<g fill="rgb(0%, 0%, 0%)" fill-opacity="1">
<use xlink:href="#glyph-2-26" x="213.746126" y="27.629667"/>
</g>
<g fill="rgb(0%, 0%, 0%)" fill-opacity="1">
<use xlink:href="#glyph-2-25" x="217.239099" y="27.629667"/>
</g>
<g fill="rgb(0%, 0%, 0%)" fill-opacity="1">
<use xlink:href="#glyph-2-7" x="221.780514" y="27.629667"/>
<use xlink:href="#glyph-2-12" x="225.270052" y="27.629667"/>
<use xlink:href="#glyph-2-24" x="228.759589" y="27.629667"/>
<use xlink:href="#glyph-2-11" x="232.671664" y="27.629667"/>
<use xlink:href="#glyph-2-6" x="237.006963" y="27.629667"/>
<use xlink:href="#glyph-2-7" x="240.116561" y="27.629667"/>
</g>
<g fill="rgb(0%, 0%, 0%)" fill-opacity="1">
<use xlink:href="#glyph-2-5" x="246.635999" y="27.629667"/>
<use xlink:href="#glyph-2-4" x="249.703" y="27.629667"/>
<use xlink:href="#glyph-2-7" x="254.038299" y="27.629667"/>
</g>
<g fill="rgb(0%, 0%, 0%)" fill-opacity="1">
<use xlink:href="#glyph-2-28" x="260.550866" y="27.629667"/>
<use xlink:href="#glyph-2-11" x="264.674553" y="27.629667"/>
<use xlink:href="#glyph-2-7" x="269.009852" y="27.629667"/>
<use xlink:href="#glyph-2-6" x="272.499389" y="27.629667"/>
<use xlink:href="#glyph-2-5" x="275.608987" y="27.629667"/>
<use xlink:href="#glyph-2-2" x="278.675988" y="27.629667"/>
<use xlink:href="#glyph-2-23" x="280.897915" y="27.629667"/>
<use xlink:href="#glyph-2-14" x="284.80999" y="27.629667"/>
</g>
<g fill="rgb(0%, 0%, 0%)" fill-opacity="1">
<use xlink:href="#glyph-2-24" x="292.175188" y="27.629667"/>
<use xlink:href="#glyph-2-6" x="296.087263" y="27.629667"/>
<use xlink:href="#glyph-2-29" x="299.196861" y="27.629667"/>
<use xlink:href="#glyph-2-6" x="303.320548" y="27.629667"/>
</g>
<g fill="rgb(0%, 0%, 0%)" fill-opacity="1">
<use xlink:href="#glyph-2-4" x="309.453175" y="27.629667"/>
<use xlink:href="#glyph-2-23" x="313.788474" y="27.629667"/>
</g>
<g fill="rgb(0%, 0%, 0%)" fill-opacity="1">
<use xlink:href="#glyph-2-16" x="317.487563" y="27.629667"/>
</g>
<g fill="rgb(0%, 0%, 0%)" fill-opacity="1">
<use xlink:href="#glyph-2-6" x="326.120373" y="27.629667"/>
<use xlink:href="#glyph-2-30" x="329.229971" y="27.629667"/>
<use xlink:href="#glyph-2-6" x="333.353658" y="27.629667"/>
<use xlink:href="#glyph-2-24" x="336.463256" y="27.629667"/>
<use xlink:href="#glyph-2-13" x="340.375331" y="27.629667"/>
<use xlink:href="#glyph-2-9" x="344.71063" y="27.629667"/>
</g>
<g fill="rgb(0%, 0%, 0%)" fill-opacity="1">
<use xlink:href="#glyph-2-8" x="202.430544" y="38.425384"/>
<use xlink:href="#glyph-2-2" x="208.878528" y="38.425384"/>
<use xlink:href="#glyph-2-14" x="211.100455" y="38.425384"/>
<use xlink:href="#glyph-2-6" x="215.435753" y="38.425384"/>
</g>
<g fill="rgb(0%, 0%, 0%)" fill-opacity="1">
<use xlink:href="#glyph-3-0" x="221.570824" y="38.425384"/>
<use xlink:href="#glyph-3-1" x="225.311136" y="38.425384"/>
<use xlink:href="#glyph-3-2" x="229.051448" y="38.425384"/>
</g>
<g fill="rgb(0%, 0%, 0%)" fill-opacity="1">
<use xlink:href="#glyph-3-0" x="232.790386" y="38.425384"/>
<use xlink:href="#glyph-3-3" x="236.530697" y="38.425384"/>
<use xlink:href="#glyph-3-4" x="239.968706" y="38.425384"/>
<use xlink:href="#glyph-3-0" x="242.499119" y="38.425384"/>
<use xlink:href="#glyph-3-5" x="246.239431" y="38.425384"/>
<use xlink:href="#glyph-3-6" x="250.787029" y="38.425384"/>
</g>
<g fill="rgb(0%, 0%, 0%)" fill-opacity="1">
<use xlink:href="#glyph-3-0" x="254.128851" y="38.425384"/>
</g>
<g fill="rgb(0%, 0%, 0%)" fill-opacity="1">
<use xlink:href="#glyph-2-6" x="261.056273" y="38.425384"/>
<use xlink:href="#glyph-2-7" x="264.165871" y="38.425384"/>
<use xlink:href="#glyph-2-12" x="267.655409" y="38.425384"/>
<use xlink:href="#glyph-2-11" x="271.144947" y="38.425384"/>
<use xlink:href="#glyph-2-10" x="275.480246" y="38.425384"/>
<use xlink:href="#glyph-2-2" x="278.547247" y="38.425384"/>
<use xlink:href="#glyph-2-5" x="280.769173" y="38.425384"/>
</g>
<g fill="rgb(0%, 0%, 0%)" fill-opacity="1">
<use xlink:href="#glyph-2-30" x="283.623188" y="38.425384"/>
</g>
<g fill="rgb(0%, 0%, 0%)" fill-opacity="1">
<use xlink:href="#glyph-2-5" x="290.776775" y="38.425384"/>
<use xlink:href="#glyph-2-10" x="293.843775" y="38.425384"/>
<use xlink:href="#glyph-2-24" x="296.910776" y="38.425384"/>
<use xlink:href="#glyph-2-13" x="300.822851" y="38.425384"/>
<use xlink:href="#glyph-2-7" x="305.15815" y="38.425384"/>
<use xlink:href="#glyph-2-9" x="308.647688" y="38.425384"/>
<use xlink:href="#glyph-2-23" x="311.292151" y="38.425384"/>
<use xlink:href="#glyph-2-31" x="315.204226" y="38.425384"/>
<use xlink:href="#glyph-2-6" x="319.859691" y="38.425384"/>
<use xlink:href="#glyph-2-17" x="322.969289" y="38.425384"/>
</g>
<g fill="rgb(0%, 0%, 0%)" fill-opacity="1">
<use xlink:href="#glyph-2-16" x="328.214245" y="38.425384"/>
<use xlink:href="#glyph-2-4" x="333.817155" y="38.425384"/>
<use xlink:href="#glyph-2-2" x="338.152454" y="38.425384"/>
<use xlink:href="#glyph-2-12" x="340.374381" y="38.425384"/>
</g>
<g fill="rgb(0%, 0%, 0%)" fill-opacity="1">
<use xlink:href="#glyph-2-4" x="343.657803" y="38.425384"/>
</g>
<g fill="rgb(0%, 0%, 0%)" fill-opacity="1">
<use xlink:href="#glyph-2-10" x="199.818804" y="49.222087"/>
<use xlink:href="#glyph-2-7" x="202.885804" y="49.222087"/>
<use xlink:href="#glyph-2-28" x="206.375342" y="49.222087"/>
<use xlink:href="#glyph-2-11" x="210.499029" y="49.222087"/>
<use xlink:href="#glyph-2-2" x="214.834328" y="49.222087"/>
<use xlink:href="#glyph-2-10" x="217.056255" y="49.222087"/>
<use xlink:href="#glyph-2-7" x="220.123255" y="49.222087"/>
<use xlink:href="#glyph-2-6" x="223.612793" y="49.222087"/>
</g>
<g fill="rgb(0%, 0%, 0%)" fill-opacity="1">
<use xlink:href="#glyph-2-13" x="229.752291" y="49.222087"/>
<use xlink:href="#glyph-2-7" x="234.08759" y="49.222087"/>
<use xlink:href="#glyph-2-32" x="237.577128" y="49.222087"/>
<use xlink:href="#glyph-2-5" x="241.912427" y="49.222087"/>
<use xlink:href="#glyph-2-4" x="244.979428" y="49.222087"/>
</g>
<g fill="rgb(0%, 0%, 0%)" fill-opacity="1">
<use xlink:href="#glyph-2-23" x="252.337756" y="49.222087"/>
</g>
<g fill="rgb(0%, 0%, 0%)" fill-opacity="1">
<use xlink:href="#glyph-2-15" x="256.036845" y="49.222087"/>
</g>
<g fill="rgb(0%, 0%, 0%)" fill-opacity="1">
<use xlink:href="#glyph-2-7" x="259.947545" y="49.222087"/>
<use xlink:href="#glyph-2-10" x="263.437083" y="49.222087"/>
</g>
<g fill="rgb(0%, 0%, 0%)" fill-opacity="1">
<use xlink:href="#glyph-2-25" x="269.533984" y="49.222087"/>
<use xlink:href="#glyph-2-10" x="273.869283" y="49.222087"/>
<use xlink:href="#glyph-2-7" x="276.936283" y="49.222087"/>
<use xlink:href="#glyph-2-24" x="280.425821" y="49.222087"/>
<use xlink:href="#glyph-2-13" x="284.337896" y="49.222087"/>
<use xlink:href="#glyph-2-5" x="288.673195" y="49.222087"/>
<use xlink:href="#glyph-2-4" x="291.740196" y="49.222087"/>
</g>
<g fill="rgb(0%, 0%, 0%)" fill-opacity="1">
<use xlink:href="#glyph-2-33" x="299.098524" y="49.222087"/>
<use xlink:href="#glyph-2-34" x="302.165525" y="49.222087"/>
<use xlink:href="#glyph-2-24" x="308.190972" y="49.222087"/>
<use xlink:href="#glyph-2-5" x="312.103047" y="49.222087"/>
<use xlink:href="#glyph-2-7" x="315.170048" y="49.222087"/>
<use xlink:href="#glyph-2-6" x="318.659585" y="49.222087"/>
<use xlink:href="#glyph-2-17" x="321.769183" y="49.222087"/>
</g>
<g fill="rgb(0%, 0%, 0%)" fill-opacity="1">
<use xlink:href="#glyph-2-35" x="327.02101" y="49.222087"/>
<use xlink:href="#glyph-2-19" x="330.933085" y="49.222087"/>
<use xlink:href="#glyph-2-35" x="334.84516" y="49.222087"/>
<use xlink:href="#glyph-2-36" x="338.757234" y="49.222087"/>
<use xlink:href="#glyph-2-37" x="342.669309" y="49.222087"/>
<use xlink:href="#glyph-2-26" x="345.73631" y="49.222087"/>
</g>
<g fill="rgb(0%, 0%, 0%)" fill-opacity="1">
<use xlink:href="#glyph-2-27" x="346.900176" y="49.222087"/>
</g>
<path fill="none" stroke-width="0.79701" stroke-linecap="butt" stroke-linejoin="miter" stroke="rgb(78.431702%, 6.27594%, 18.03894%)" stroke-opacity="1" stroke-miterlimit="10" d="M 169.501581 -0.000814769 L 182.63356 -0.000814769 " transform="matrix(0.98519, 0, 0, -0.98519, 7.399281, 30.573416)"/>
<path fill-rule="nonzero" fill="rgb(78.431702%, 6.27594%, 18.03894%)" fill-opacity="1" stroke-width="0.79701" stroke-linecap="butt" stroke-linejoin="miter" stroke="rgb(78.431702%, 6.27594%, 18.03894%)" stroke-opacity="1" stroke-miterlimit="10" d="M 5.949829 -0.000814769 L 1.287025 1.763597 L 2.829398 -0.000814769 L 1.287025 -1.761261 Z M 5.949829 -0.000814769 " transform="matrix(0.98519, 0, 0, -0.98519, 184.735941, 30.573416)"/>
</svg>
